<svg width="200" height="200" viewBox="0 0 200 200" fill="none" xmlns="http://www.w3.org/2000/svg">
<path d="M101.664 76.1754V116.765C101.664 116.765 158.261 151.67 158.34 150.742C158.418 149.814 157.972 109.418 157.054 108.867C156.136 108.316 104.912 74.4807 101.664 76.1754Z" fill="#997404"/>
<path d="M65.5249 138.196C65.5249 138.196 99.2774 114.687 102.508 115.973C105.738 117.258 142.597 136.175 141.891 138.196C141.185 140.216 99.4942 164.432 98.943 163.986C98.3923 163.541 65.5249 138.196 65.5249 138.196Z" fill="#CC9A06"/>
<path d="M45.0203 150.926L45.7547 108.867L101.664 143.212V184.169L45.0203 150.926Z" fill="#CC9A06"/>
<path d="M157.054 108.867C157.054 108.867 158.891 148.354 158.34 150.742C157.789 153.129 103.759 185.821 101.664 184.168C99.5679 182.515 100.671 143.27 100.671 143.27L157.054 108.867Z" fill="#CC9A06"/>
<path d="M45.7421 109.605C45.7548 108.867 100.821 75.0734 101.664 76.1753C102.507 77.2772 101.664 116.764 101.664 116.764C101.664 116.764 70.5406 133.079 70.6492 132.477C70.7841 131.731 45.7421 109.605 45.7421 109.605Z" fill="#997404"/>
<path d="M46.2539 109.174C46.2539 109.174 23.9967 83.9857 23.5315 82.7869C23.0423 81.5267 23.5315 80.7343 23.5315 80.7343C23.5315 80.7343 74.2223 51.9315 78.4465 52.2989C82.6708 52.6663 100.854 74.8896 100.67 76.5422L46.2539 109.174Z" fill="#CC9A06"/>
<path d="M46.1914 109.578L46.0186 109.382C43.7365 106.8 23.7103 84.117 23.2383 82.9015C22.6989 81.5114 23.2406 80.6077 23.2641 80.5697L23.3062 80.5014L23.3763 80.4616C25.4498 79.2832 74.2047 51.603 78.4742 51.9859C82.0744 52.299 93.4236 66.0257 94.706 67.5896C96.2089 69.4233 101.103 75.4897 100.982 76.5771L100.965 76.7319L100.831 76.812L46.1914 109.578ZM23.7682 80.9621C23.6822 81.1526 23.4732 81.7666 23.8252 82.6735C24.2388 83.6097 37.4352 98.7158 46.3168 108.769L100.329 76.3794C99.5494 74.0439 82.5346 52.9701 78.4194 52.6122C75.1694 52.3388 41.2943 71.0053 23.7682 80.9621Z" fill="#FFE69C"/>
<path d="M101.663 76.1752C101.663 76.1752 120.138 53.5778 123.26 52.2958C126.383 51.0138 174.869 82.6037 175.604 84.6238C175.604 84.6238 175.788 85.7257 175.604 87.0113C175.421 88.2969 157.605 108.867 157.055 108.867C156.504 108.867 101.663 76.1752 101.663 76.1752Z" fill="#CC9A06"/>
<path d="M157.054 109.182C156.499 109.182 122.011 88.6711 101.502 76.4453L101.189 76.2585L101.42 75.9761C102.176 75.0507 119.982 53.3017 123.141 52.0048C123.44 51.8821 124.049 51.8582 126.115 52.7713C136.739 57.4676 175.157 82.4729 175.899 84.5165C175.922 84.6192 176.104 85.7369 175.915 87.056C175.792 87.9181 170.093 94.6751 166.706 98.6265C162.578 103.441 157.553 109.182 157.054 109.182ZM102.137 76.0919C120.466 87.0171 154.542 107.268 157.023 108.512C158.629 107.125 174.901 88.4357 175.294 86.9574C175.447 85.884 175.329 84.9265 175.3 84.7174C174.716 83.73 163.861 76.1684 150.016 67.3963C132.982 56.6046 124.365 52.179 123.379 52.5867C120.997 53.5646 108.581 68.2231 102.137 76.0919Z" fill="#FFE69C"/>
<path d="M101.664 143.212C101.664 143.212 120.506 144.681 122.342 143.212C124.179 141.742 173.951 112.357 174.502 111.254C175.053 110.152 174.869 108.683 173.216 108.867C171.563 109.05 157.054 108.867 157.054 108.867C157.054 108.867 101.739 141.559 101.664 143.212Z" fill="#CC9A06"/>
<path d="M115.971 144.18C110.286 144.18 102.878 143.622 101.639 143.525L101.335 143.501L101.349 143.197C101.367 142.807 101.404 141.997 129.224 125.15C142.906 116.865 156.756 108.678 156.894 108.596L156.97 108.551L157.057 108.552C157.204 108.555 171.566 108.734 173.182 108.554C174.115 108.45 174.584 108.82 174.813 109.149C175.2 109.704 175.188 110.585 174.783 111.395C174.467 112.027 164.877 117.863 142.058 131.579C131.977 137.638 123.271 142.871 122.539 143.457C121.859 144.001 119.191 144.18 115.971 144.18ZM102.299 142.945C109.827 143.511 120.904 143.96 122.145 142.966C122.91 142.354 131.633 137.111 141.733 131.04C155.148 122.977 173.519 111.934 174.24 111.081C174.519 110.517 174.549 109.872 174.297 109.509C174.106 109.234 173.753 109.124 173.251 109.18C171.647 109.357 158.466 109.199 157.138 109.183C136.446 121.413 105.92 139.817 102.299 142.945Z" fill="#FFE69C"/>
<path d="M48.1956 108.226C48.1956 108.226 30.6944 108.652 29.2251 108.852C27.7558 109.051 27.572 110.153 27.7558 111.071C27.9395 111.99 79.9159 143.416 81.5689 143.865C83.222 144.314 101.664 143.212 101.664 143.212L48.1956 108.226Z" fill="#CC9A06"/>
<path d="M83.7166 144.283C82.5899 144.283 81.7853 144.249 81.4862 144.168C80.4757 143.894 64.4637 134.297 53.9481 127.913C27.6047 111.921 27.4866 111.328 27.4472 111.132C27.3458 110.627 27.3119 109.903 27.7259 109.323C28.0323 108.893 28.5224 108.63 29.1826 108.54C30.6524 108.341 47.4725 107.93 48.188 107.911L48.2862 107.909L48.3681 107.963L102.631 143.47L101.682 143.526C101.061 143.563 88.9373 144.283 83.7166 144.283ZM28.0518 110.942C29.7627 112.598 79.7014 142.997 81.6518 143.561C82.8921 143.9 95.0278 143.282 100.695 142.954L48.1056 108.543C46.6933 108.577 30.647 108.976 29.2672 109.163C28.7862 109.229 28.44 109.405 28.2386 109.688C27.9717 110.063 27.9848 110.564 28.0518 110.942Z" fill="#FFE69C"/>
<path d="M28.3432 109.815C31.2479 111.369 34.0318 113.205 36.8555 114.899C42.8591 118.499 48.8604 122.103 54.8617 125.707C60.921 129.346 66.9798 132.985 73.0408 136.62C75.1428 137.881 77.2447 139.141 79.3485 140.399C80.2956 140.965 81.259 141.695 82.2731 142.137C82.7143 142.33 83.3053 142.204 83.7764 142.19C85.2891 142.143 86.8019 142.095 88.3147 142.048C91.4253 141.951 94.5364 141.853 97.647 141.756C97.8529 141.75 98.0583 141.743 98.2642 141.737C98.7688 141.721 98.7711 140.935 98.2642 140.951C95.8514 141.026 93.4386 141.101 91.0257 141.177C89.2727 141.232 87.5192 141.286 85.7661 141.341C85.1032 141.362 84.4398 141.383 83.7768 141.403C83.446 141.414 82.9854 141.344 82.6663 141.438C82.4455 141.503 82.7962 141.583 82.6306 141.435C82.527 141.342 82.3641 141.279 82.2446 141.209C81.731 140.905 81.2187 140.599 80.7065 140.294C78.8145 139.164 76.9248 138.031 75.0346 136.898C69.1713 133.383 63.3112 129.863 57.4506 126.344C51.3058 122.654 45.1615 118.964 39.015 115.277C35.6704 113.27 32.3625 111.169 28.9591 109.263C28.8853 109.222 28.8143 109.176 28.7396 109.137C28.2943 108.898 27.8965 109.576 28.3432 109.815Z" fill="#FFE69C"/>
<path d="M81.9228 143.863C82.1554 143.222 82.388 142.581 82.6206 141.94C82.6908 141.746 82.5419 141.501 82.346 141.456C82.1247 141.406 81.9378 141.524 81.8622 141.731C81.6296 142.372 81.397 143.013 81.1644 143.655C81.0943 143.848 81.2432 144.094 81.4391 144.138C81.6608 144.188 81.8477 144.071 81.9228 143.863Z" fill="#FFE69C"/>
<path d="M103.713 142.03C106.995 142.265 110.283 142.402 113.572 142.431C115.166 142.445 116.76 142.434 118.352 142.398C119.024 142.384 119.956 142.527 120.58 142.272C121.299 141.979 121.995 141.415 122.656 141.014C126.539 138.663 130.422 136.312 134.304 133.96C139.8 130.632 145.297 127.303 150.793 123.974C155.841 120.917 160.889 117.86 165.937 114.802C167.654 113.763 169.37 112.723 171.087 111.684C171.9 111.191 172.773 110.742 173.55 110.192C173.586 110.167 173.626 110.146 173.664 110.123C174.096 109.862 173.701 109.182 173.267 109.445C171.209 110.691 169.151 111.938 167.093 113.184C162.277 116.1 157.461 119.017 152.646 121.933C147.11 125.286 141.575 128.638 136.04 131.991C131.811 134.551 127.582 137.113 123.354 139.673C122.384 140.261 121.414 140.848 120.444 141.435C120.371 141.48 120.285 141.555 120.203 141.582C120.188 141.587 120.176 141.603 120.161 141.607C120.031 141.643 119.753 141.575 119.586 141.58C119.124 141.594 118.661 141.607 118.199 141.616C114.961 141.685 111.721 141.652 108.486 141.517C106.894 141.451 105.303 141.359 103.714 141.244C103.208 141.207 103.211 141.994 103.713 142.03Z" fill="#FFE69C"/>
<path d="M24.1076 80.6691C24.8787 81.766 25.8267 82.7642 26.6924 83.7847C28.4966 85.9115 30.3112 88.0288 32.1276 90.1453C36.1921 94.8813 40.2675 99.6088 44.3533 104.327C45.4239 105.563 46.4783 106.817 47.5752 108.03C47.9151 108.406 48.4699 107.848 48.1309 107.474C45.3782 104.43 42.7441 101.271 40.0634 98.1639C35.9993 93.4536 31.9366 88.7416 27.906 84.0028C26.8978 82.8176 25.5932 81.4193 24.7863 80.2718C24.4976 79.8613 23.8157 80.2541 24.1076 80.6691Z" fill="#FFE69C"/>
<path d="M155.314 107.833C161.606 100.013 168.212 92.45 175.116 85.1648C175.464 84.7979 174.909 84.2408 174.56 84.6092C167.656 91.8947 161.049 99.4572 154.758 107.278C154.444 107.668 154.997 108.228 155.314 107.833Z" fill="#FFE69C"/>
<path d="M79.2512 128.756C86.8757 124.591 94.5002 120.426 102.125 116.261C102.569 116.019 102.173 115.339 101.728 115.582C94.1037 119.747 86.4788 123.912 78.8543 128.077C78.4104 128.32 78.8068 128.999 79.2512 128.756Z" fill="#FFE69C"/>
<path d="M101.728 116.262C109.242 120.113 116.553 124.344 124.067 128.195C124.516 128.425 124.914 127.747 124.464 127.516C116.95 123.665 109.638 119.434 102.125 115.583C101.676 115.352 101.278 116.03 101.728 116.262Z" fill="#FFE69C"/>
<path d="M102.202 116.21C102.67 105.824 102.569 95.4155 101.881 85.0415C101.686 82.0997 101.443 79.1619 101.157 76.2278C101.108 75.7286 100.321 75.7237 100.371 76.2278C101.381 86.5746 101.823 96.9749 101.679 107.371C101.638 110.318 101.549 113.265 101.416 116.21C101.393 116.716 102.179 116.715 102.202 116.21Z" fill="#FFE69C"/>
<path d="M102.23 184.571C102.229 173.728 102.125 162.886 102.078 152.045C102.065 149.1 102.057 146.156 102.057 143.212C102.057 142.706 101.271 142.705 101.271 143.212C101.272 154.055 101.376 164.897 101.423 175.738C101.435 178.683 101.444 181.627 101.444 184.571C101.444 185.077 102.23 185.077 102.23 184.571Z" fill="#FFE69C"/>
<path d="M120.23 142.11C120.453 142.682 120.803 143.201 121.279 143.593C121.362 143.661 121.446 143.708 121.557 143.708C121.653 143.708 121.768 143.665 121.835 143.593C121.967 143.449 122.004 143.177 121.835 143.037C121.738 142.958 121.645 142.873 121.559 142.782C121.516 142.738 121.475 142.693 121.436 142.647C121.415 142.623 121.394 142.598 121.374 142.572C121.366 142.562 121.333 142.519 121.372 142.57C121.414 142.625 121.369 142.566 121.363 142.559C121.213 142.357 121.088 142.138 120.989 141.908C121.002 141.939 121.015 141.97 121.029 142.002C121.015 141.969 121.002 141.935 120.988 141.902C120.95 141.804 120.902 141.722 120.808 141.667C120.724 141.618 120.599 141.597 120.505 141.627C120.32 141.686 120.151 141.904 120.23 142.11Z" fill="#FFE69C"/>
<path d="M60.4553 88.5149C65.1154 80.8149 69.3826 72.8831 73.2403 64.7518C73.4562 64.297 72.7783 63.8979 72.5616 64.3549C68.7038 72.4867 64.4366 80.4184 59.7765 88.1181C59.5141 88.552 60.1933 88.9475 60.4553 88.5149Z" fill="#FFE69C"/>
<path d="M66.5562 83.4871C67.6105 82.0046 68.6649 80.5217 69.7197 79.0392C69.8428 78.8664 69.7505 78.6021 69.5785 78.5016C69.3812 78.3863 69.164 78.4691 69.0409 78.6428C67.9866 80.1257 66.9322 81.6082 65.8774 83.0906C65.7543 83.264 65.8466 83.5282 66.0186 83.6282C66.2159 83.7436 66.4331 83.6604 66.5562 83.4871Z" fill="#FFE69C"/>
<path d="M47.8531 139.356C47.8531 139.356 47.4273 147.977 47.8531 149.091C48.2789 150.205 59.4113 156.823 59.7829 155.664C60.1539 154.505 60.5793 147.662 60.0227 146.548C59.4661 145.435 47.9065 138.147 47.8531 139.356Z" fill="#FFC107"/>
<path d="M94.635 164.117C94.8124 163.929 95.1169 163.959 95.2577 164.175C96.0129 165.335 97.6234 168.282 97.0288 168.222C96.3157 168.15 95.9677 167.819 95.9677 167.819C95.9677 167.819 95.783 173.526 95.6111 173.524C95.092 173.516 94.0427 172.882 93.8997 172.383C93.7571 171.884 93.8997 166.892 93.8997 166.892C93.8997 166.892 92.8304 166.536 92.9014 166.179C92.9539 165.917 94.0571 164.726 94.635 164.117Z" fill="#2F2B28"/>
<path d="M89.9537 161.76C90.1311 161.572 90.4352 161.602 90.5764 161.818C91.3316 162.978 92.9422 165.925 92.3475 165.865C91.6344 165.793 91.2864 165.462 91.2864 165.462C91.2864 165.462 91.1018 171.169 90.9298 171.167C90.4108 171.159 89.3609 170.525 89.2184 170.026C89.0758 169.527 89.2184 164.535 89.2184 164.535C89.2184 164.535 88.1491 164.179 88.2201 163.822C88.2726 163.56 89.3758 162.369 89.9537 161.76Z" fill="#2F2B28"/>
<path d="M96.4478 175.433C96.4478 175.433 96.3283 177.002 96.1147 177.144C95.9007 177.287 88.1567 172.411 88.1567 172.411C87.8929 171.836 88.0336 171.2 88.116 170.58C88.2015 170.095 96.0862 174.761 96.4478 175.433Z" fill="#2F2B28"/>
<path d="M85.057 164.905C85.1991 164.816 86.0783 160.211 82.5306 157.547C78.9828 154.882 77.6384 160.845 77.8538 161.226C78.0683 161.606 84.2506 165.413 85.057 164.905Z" fill="#2F2B28"/>
<path d="M82.5613 168.024C82.1857 168.467 81.6223 168.034 81.344 167.691C81.0259 167.298 81.0083 166.812 81.0223 166.328C81.0599 165.042 81.259 163.726 81.5843 162.482C81.7296 161.927 80.8703 161.69 80.725 162.245C80.5137 163.054 80.3806 163.882 80.2734 164.711C80.1779 165.448 80.0675 166.229 80.1489 166.973C80.2254 167.669 80.5453 168.247 81.0929 168.686C81.7015 169.176 82.641 169.303 83.1912 168.654C83.56 168.219 82.9328 167.586 82.5613 168.024Z" fill="#2F2B28"/>
<path d="M130.54 73.1257C131.634 77.1663 133.375 81.0095 135.694 84.4944C135.974 84.9134 136.655 84.5201 136.373 84.0975C134.089 80.6651 132.376 76.8965 131.298 72.9166C131.166 72.4293 130.407 72.6361 130.54 73.1257Z" fill="#FFE69C"/>
<path d="M95.6156 139.124C102.5 134.866 109.44 130.698 116.373 126.521C117.06 126.107 117.746 125.694 118.433 125.281C118.866 125.02 118.471 124.34 118.036 124.602C112.319 128.04 106.608 131.489 100.91 134.958C99.01 136.115 97.1112 137.275 95.2192 138.445C94.7893 138.711 95.1834 139.392 95.6156 139.124Z" fill="#FFE69C"/>
<path d="M76.6465 118.08C80.1806 113.056 83.3546 107.79 86.1458 102.319C86.3752 101.869 85.6973 101.471 85.467 101.922C82.6758 107.394 79.5019 112.659 75.9677 117.683C75.6758 118.097 76.3569 118.491 76.6465 118.08Z" fill="#FFE69C"/>
<path d="M23.8293 41.8531C24.0687 37.4505 26.3353 33.3647 29.9949 29.9034C34.4666 25.6737 41.03 23.4387 47.0309 24.8103C53.0313 26.1819 58.0474 30.8636 60.3128 36.5871C62.5464 42.2318 61.7757 49.8505 57.5374 54.8481C57.5374 54.8481 61.0173 61.7431 59.5367 62.5844C58.9163 63.1953 54.1915 60.1032 52.6353 58.571L52.6787 58.5284C47.5585 61.8087 40.496 63.565 33.0457 59.409C27.4811 56.3047 23.3926 49.8758 23.8293 41.8531Z" fill="#FFC107"/>
<path d="M37.713 31.0271C37.713 31.0271 39.7177 45.805 41.2196 46.6901C42.7215 47.5748 45.9041 46.7521 46.0919 46.296C46.2797 45.8399 46.9707 29.8415 46.3937 29.8012C38.2877 29.236 37.713 31.0271 37.713 31.0271Z" fill="#D32F1E"/>
<path d="M47.4504 51.0672C48.2998 53.1045 47.3363 55.4445 45.2991 56.2938C43.2618 57.1432 40.9214 56.1798 40.0725 54.1426C39.2231 52.1053 40.1865 49.7649 42.2238 48.916C44.261 48.067 46.601 49.03 47.4504 51.0672Z" fill="#D32F1E"/>
<path d="M79.4408 41.2147C77.7112 37.929 76.7713 34.307 76.6813 30.595C76.4858 30.7072 76.2908 30.819 76.0953 30.9312C80.539 33.0065 84.9823 35.0817 89.4256 37.157C89.5975 37.2371 89.8695 37.2244 89.9582 37.0172C93.0204 29.8732 96.0826 22.7289 99.1444 15.5849C98.9072 15.5537 98.6701 15.5229 98.4325 15.4917C100.686 22.9886 102.94 30.486 105.193 37.9828C105.271 38.2426 105.535 38.32 105.765 38.2154C112.689 35.0713 119.327 31.3304 125.603 27.0355C125.412 26.8889 125.221 26.7423 125.031 26.5956C123.611 32.0802 122.19 37.5652 120.77 43.0497C120.69 43.3601 120.962 43.5746 121.249 43.5285C123.301 43.1995 125.231 42.6551 127.151 41.8704C129.07 41.0858 131.001 40.5409 133.052 40.2124C133.546 40.1332 133.336 39.3829 132.845 39.4617C130.794 39.7907 128.864 40.335 126.944 41.1197C125.024 41.9044 123.094 42.4492 121.043 42.7777C121.202 42.9375 121.362 43.0972 121.522 43.257C122.942 37.7724 124.362 32.2874 125.782 26.8029C125.862 26.4938 125.501 26.1639 125.21 26.3631C118.935 30.6579 112.297 34.3989 105.373 37.543C105.563 37.6204 105.754 37.6982 105.945 37.7756C103.691 30.2787 101.438 22.7814 99.1842 15.2845C99.0973 14.9958 98.6122 14.8654 98.4724 15.1912C95.4102 22.3356 92.348 29.4796 89.2862 36.6235C89.4636 36.5769 89.6414 36.5303 89.8188 36.4837C85.3755 34.4084 80.9318 32.3331 76.4885 30.2579C76.2337 30.1389 75.8948 30.2764 75.9025 30.5941C75.9962 34.4446 76.9745 38.1987 78.7683 41.6071C79.0018 42.0514 79.6743 41.6587 79.4408 41.2147Z" fill="#2F2B28"/>
<path d="M136.452 38.4271C136.333 38.4058 136.215 38.3846 136.096 38.3633C136.045 38.347 135.993 38.3448 135.941 38.3565C135.889 38.3588 135.841 38.3742 135.796 38.4027C135.751 38.4271 135.714 38.4606 135.687 38.5031C135.652 38.5407 135.629 38.585 135.617 38.6357C135.612 38.6701 135.607 38.7045 135.603 38.7394C135.603 38.8095 135.621 38.8751 135.656 38.9357C135.676 38.962 135.697 38.9882 135.717 39.0145C135.765 39.0629 135.822 39.0959 135.889 39.1145C136.007 39.1358 136.126 39.157 136.244 39.1783C136.296 39.1946 136.348 39.1969 136.399 39.1851C136.451 39.1828 136.499 39.1674 136.544 39.1389C136.589 39.1145 136.626 39.081 136.653 39.0385C136.688 39.0009 136.711 38.9566 136.723 38.9059C136.727 38.8715 136.732 38.8371 136.737 38.8023C136.737 38.7321 136.719 38.6665 136.684 38.6059C136.664 38.5796 136.643 38.5534 136.623 38.5271C136.575 38.4792 136.518 38.4457 136.452 38.4271Z" fill="#2F2B28"/>
</svg>
