<svg width="107" height="127" viewBox="0 0 107 127" fill="none" xmlns="http://www.w3.org/2000/svg">
<path d="M94.9853 100.397C97.7345 98.3552 101.819 98.3453 104.578 100.373C105.742 101.229 106.707 102.504 106.757 103.948C106.807 105.391 105.656 106.899 104.212 106.858C103.178 106.829 102.302 106.069 101.708 105.221C101.115 104.374 100.707 103.401 100.057 102.596C98.8631 101.118 96.8562 100.341 94.9781 100.632" fill="#FFEA7C"/>
<path d="M26.8018 109.008C25.7408 110.917 25.4223 113.148 25.905 115.277C26.3099 117.063 27.0689 119.309 28.4893 121.286C31.4068 125.345 38.6372 127.121 43.5844 126.867C48.5315 126.613 58.9805 126.891 70.0958 120.778C78.4823 116.166 84.0494 110.668 81.893 101.769C79.7365 92.8713 69.3306 90.2073 49.4173 94.1398C35.3674 96.9144 29.2097 104.678 26.8018 109.008Z" fill="#E49D67"/>
<path opacity="0.2" d="M81.8538 101.801C81.6385 100.914 81.3373 100.091 80.9564 99.3271C81.3765 101.845 79.7494 104.424 77.6357 106.395C74.121 109.673 69.9158 112.801 65.6939 115.097C61.4716 117.392 56.8908 118.958 52.2585 120.238C47.4104 121.577 41.9372 121.426 36.9688 120.643C32.0854 119.874 27.6765 118.175 25.7255 113.694C25.7474 114.229 25.8174 114.763 25.9373 115.292C26.3416 117.075 27.0997 119.319 28.5183 121.293C31.4323 125.347 38.6534 127.12 43.5942 126.867C48.5351 126.614 58.971 126.891 70.0722 120.786C78.4477 116.18 84.0075 110.688 81.8538 101.801Z" fill="black"/>
<path d="M79.4213 96.9838C79.4213 96.9838 79.468 97.0226 79.5544 97.1043C79.6444 97.191 79.7706 97.313 79.9351 97.4718C80.2189 97.8322 80.6615 98.3935 80.8535 99.2694C81.0455 100.132 80.9836 101.266 80.5096 102.434C80.0544 103.608 79.2554 104.827 78.1576 105.965C77.0346 107.078 75.7302 108.209 74.2921 109.38C72.8492 110.545 71.2576 111.729 69.5166 112.877C67.7767 114.025 65.8843 115.137 63.8404 116.125C61.7973 117.115 59.6109 117.988 57.3331 118.762C56.1937 119.15 55.0585 119.504 53.9344 119.834C52.8103 120.159 51.7005 120.489 50.583 120.706C48.3527 121.149 46.1556 121.315 44.07 121.301C41.983 121.295 40.0036 121.123 38.1659 120.876C36.3292 120.629 34.6234 120.304 33.118 119.823C31.615 119.341 30.301 118.739 29.2683 118.021C28.2298 117.312 27.4621 116.531 26.9229 115.832C26.3978 115.121 26.0632 114.519 25.8688 114.098C25.7767 113.889 25.7058 113.729 25.6556 113.615C25.6083 113.506 25.588 113.448 25.588 113.448C25.588 113.448 25.6185 113.501 25.6702 113.608C25.7237 113.721 25.7991 113.879 25.8972 114.084C26.0999 114.5 26.442 115.094 26.9708 115.795C27.5141 116.484 28.2821 117.252 29.3171 117.949C30.3461 118.655 31.6541 119.246 33.1509 119.718C34.6503 120.19 36.3492 120.507 38.183 120.748C40.0167 120.99 41.9907 121.156 44.0703 121.158C46.1487 121.168 48.3353 121 50.5528 120.557C51.6619 120.341 52.7666 120.011 53.891 119.686C55.0134 119.356 56.1465 119.002 57.2831 118.615C59.5559 117.843 61.7369 116.973 63.7743 115.988C65.8123 115.005 67.7005 113.9 69.4382 112.757C71.1772 111.616 72.7681 110.438 74.2116 109.28C75.6488 108.117 76.9593 106.989 78.0792 105.889C79.1728 104.765 79.9713 103.561 80.4288 102.403C80.9055 101.25 80.9746 100.136 80.7949 99.2831C80.6154 98.4183 80.1863 97.8579 79.9121 97.493C79.7533 97.3307 79.6313 97.2057 79.5445 97.1165C79.4611 97.0307 79.4213 96.9838 79.4213 96.9838Z" fill="#263238"/>
<path d="M29.5991 117.091C29.5961 117.096 29.5596 117.076 29.4932 117.034C29.4281 116.99 29.3273 116.931 29.2089 116.839C28.9675 116.661 28.6338 116.38 28.2734 115.98C27.914 115.582 27.5312 115.059 27.2241 114.414C26.9119 113.774 26.6843 113.009 26.6203 112.186C26.5641 111.362 26.6813 110.571 26.9002 109.893C27.1161 109.212 27.4223 108.641 27.728 108.199C28.0333 107.756 28.3282 107.434 28.5456 107.228C28.6511 107.122 28.7441 107.051 28.8033 106.999C28.8641 106.949 28.8975 106.924 28.9011 106.928C28.9277 106.953 28.4002 107.371 27.8195 108.26C27.2405 109.132 26.6592 110.557 26.7752 112.175C26.8957 113.792 27.6685 115.119 28.356 115.908C29.0486 116.713 29.6221 117.064 29.5991 117.091Z" fill="white"/>
<path d="M32.7708 118.639C32.7565 118.679 32.3306 118.566 31.8198 118.386C31.3088 118.205 30.9063 118.026 30.9206 117.986C30.935 117.945 31.3605 118.058 31.8716 118.239C32.3824 118.419 32.7849 118.598 32.7708 118.639Z" fill="white"/>
<path d="M7.38371 59.0099C5.82059 58.5966 1.2622 57.9438 0.37822 60.1576C-0.0440355 61.2148 -0.354447 62.2013 0.826194 63.2904C2.36778 64.7124 5.9734 66.036 7.03203 66.3814C8.2653 66.7839 10.8126 67.4843 12.3033 66.8623C13.1622 66.5037 13.6984 65.3865 13.6784 64.5207C13.6281 62.3819 10.7997 59.913 7.38371 59.0099Z" fill="#AD3030"/>
<path d="M7.39713 59.1415C6.66207 58.9436 1.1889 57.6882 0.501394 60.4514C-0.102084 62.8769 5.31546 64.5809 7.25927 65.2155C9.20308 65.8501 13.0626 66.6722 13.4798 64.6691C13.9343 62.4852 10.3149 59.9277 7.39713 59.1415Z" fill="#F75757"/>
<path d="M6.29066 62.2974C6.29155 62.292 6.33701 62.347 6.30382 62.4466C6.28049 62.5548 6.12678 62.6338 5.95752 62.6505C5.6178 62.7076 5.10463 62.6747 4.65188 62.3625C4.62556 62.338 4.59805 62.3045 4.59446 62.2591C4.58997 62.2148 4.61659 62.1709 4.64829 62.1493C4.71228 62.1048 4.77987 62.1003 4.83878 62.0862C4.96019 62.0611 5.07832 62.0387 5.19255 62.024C5.42073 61.9923 5.63156 62.0031 5.80231 62.0372C5.97427 62.0698 6.10525 62.1332 6.1842 62.1909C6.26225 62.2495 6.29066 62.2974 6.29066 62.2974C6.28617 62.3009 6.25029 62.2621 6.16984 62.2112C6.0894 62.1613 5.96171 62.1069 5.79394 62.0805C5.62617 62.053 5.42252 62.0467 5.19973 62.0811C5.08819 62.097 4.97186 62.1203 4.85104 62.146C4.79063 62.1595 4.72694 62.1682 4.68507 62.199C4.64291 62.2283 4.64799 62.2776 4.69374 62.3165C5.1154 62.606 5.62109 62.6541 5.95094 62.6069C6.1208 62.5931 6.25208 62.5321 6.28109 62.4379C6.31817 62.3503 6.28527 62.2982 6.29066 62.2974Z" fill="#AD3030"/>
<path d="M7.11931 62.6939C7.11124 62.6909 7.17972 62.6598 7.23744 62.7381C7.28618 62.8207 7.26615 62.9436 7.26495 63.0904C7.25538 63.2351 7.22308 63.4313 7.06728 63.5749C6.90848 63.728 6.63306 63.7029 6.44257 63.5734C6.23772 63.4529 6.14861 63.1613 6.28856 62.9851C6.35196 62.8999 6.43778 62.8506 6.51434 62.8093C6.59209 62.7692 6.66357 62.7327 6.73354 62.7043C6.8723 62.6454 7.00209 62.6397 7.08403 62.6622C7.16686 62.6837 7.20155 62.7196 7.19946 62.7214C7.20305 62.7301 7.02123 62.6122 6.75089 62.745C6.62678 62.812 6.44735 62.8772 6.33551 63.0189C6.22277 63.1658 6.29394 63.4122 6.47756 63.5219C6.6537 63.6401 6.89413 63.6613 7.0296 63.5324C7.16896 63.4086 7.20723 63.2283 7.22129 63.0871C7.22906 62.9439 7.25209 62.8174 7.2171 62.7513C7.17553 62.6819 7.11662 62.6978 7.11931 62.6939Z" fill="#AD3030"/>
<path d="M8.89686 63.4695C8.89686 63.4695 8.93334 63.5063 8.945 63.5945C8.95068 63.6379 8.95009 63.6929 8.93125 63.7536C8.91211 63.8113 8.87233 63.8864 8.78591 63.9124C8.62024 63.9318 8.43931 63.8681 8.26198 63.7736C8.08464 63.6848 7.87501 63.5616 7.76556 63.3382C7.71502 63.2308 7.68601 63.096 7.7545 62.9841C7.83135 62.8687 7.97579 62.8741 8.07089 62.8947C8.27245 62.9405 8.43872 63.0227 8.56731 63.1079C8.83167 63.2733 8.91181 63.4674 8.89686 63.4695C8.89207 63.4719 8.87413 63.4273 8.8194 63.3645C8.76498 63.3017 8.67078 63.2234 8.54338 63.1444C8.41629 63.0667 8.25121 62.9907 8.05982 62.9506C7.96831 62.9324 7.85557 62.936 7.80563 63.017C7.75569 63.0969 7.77453 63.2141 7.82148 63.311C7.91927 63.5123 8.11365 63.6322 8.2877 63.7222C8.45965 63.82 8.63639 63.8789 8.77455 63.8693C8.90553 63.8248 8.92377 63.6681 8.92048 63.596C8.91749 63.5137 8.89028 63.4716 8.89686 63.4695Z" fill="#AD3030"/>
<path d="M5.67584 61.6029C5.66806 61.5999 5.74103 61.64 5.70425 61.7444C5.65132 61.8398 5.48804 61.8727 5.32506 61.8326C5.16178 61.7958 4.96859 61.751 4.75956 61.6747C4.55441 61.5925 4.32145 61.4971 4.1507 61.28C4.11092 61.2228 4.10554 61.123 4.16714 61.0694C4.22606 61.0168 4.29753 61.0123 4.35943 61.0111C4.48353 61.0171 4.59717 61.0326 4.70692 61.0548C4.92583 61.0981 5.11363 61.1759 5.25986 61.2587C5.4058 61.3431 5.51076 61.4307 5.57835 61.4953C5.64683 61.5593 5.67853 61.6011 5.67584 61.6029C5.66657 61.6128 5.5293 61.4546 5.23893 61.297C5.09359 61.221 4.90968 61.1502 4.69586 61.1107C4.59 61.0907 4.47426 61.0763 4.35943 61.0718C4.3044 61.0721 4.2443 61.0814 4.20991 61.1143C4.17492 61.1469 4.17432 61.2007 4.20452 61.2486C4.34896 61.4334 4.58372 61.5425 4.77989 61.6209C4.98295 61.6983 5.17523 61.7477 5.33462 61.7895C5.48983 61.8341 5.63517 61.8057 5.68302 61.7324C5.7207 61.6547 5.66418 61.6035 5.67584 61.6029Z" fill="#AD3030"/>
<path d="M6.47338 61.2767C6.47338 61.2767 6.50209 61.3246 6.47966 61.4167C6.468 61.4607 6.43451 61.5175 6.37021 61.5453C6.30771 61.5743 6.22547 61.5731 6.14712 61.5486C5.99431 61.4932 5.81996 61.4236 5.63515 61.3144C5.45483 61.2053 5.26463 61.0378 5.18269 60.7944C5.17731 60.7755 5.17193 60.757 5.16684 60.7396L5.16654 60.7382L5.16624 60.7355C5.16475 60.7217 5.16355 60.7091 5.16236 60.6969L5.16176 60.6921L5.16266 60.6879C5.19166 60.5501 5.33042 60.478 5.44675 60.4828C5.56667 60.4855 5.66715 60.5384 5.75357 60.5886C5.92433 60.693 6.07535 60.7902 6.19168 60.888C6.30801 60.9852 6.38935 61.0785 6.43211 61.1526C6.47487 61.2271 6.47637 61.2767 6.47338 61.2767C6.4683 61.2782 6.45903 61.2322 6.41238 61.1652C6.36572 61.0985 6.28169 61.0118 6.16476 60.9215C6.04813 60.8309 5.89562 60.7379 5.72516 60.6377C5.64083 60.5898 5.54633 60.5441 5.44645 60.5435C5.34926 60.5396 5.2431 60.6027 5.22396 60.6999L5.22426 60.6909C5.22546 60.7032 5.22695 60.7157 5.22845 60.7295L5.22785 60.7256C5.23233 60.7414 5.23742 60.7582 5.2425 60.7755C5.31696 60.9977 5.4934 61.1583 5.66595 61.2663C5.84089 61.3736 6.01763 61.4499 6.16088 61.5073C6.30741 61.5662 6.4369 61.4956 6.45693 61.4098C6.48415 61.3282 6.4668 61.2767 6.47338 61.2767Z" fill="#AD3030"/>
<path d="M8.10049 61.2365C8.10049 61.2365 8.13159 61.2775 8.14056 61.3669C8.15043 61.4503 8.1283 61.6064 7.98266 61.6973C7.83972 61.7865 7.64743 61.7957 7.44168 61.808C7.33791 61.8095 7.21889 61.796 7.11751 61.7276C7.01793 61.6603 6.94526 61.5505 6.91895 61.4273C6.85406 61.1351 7.07804 60.8815 7.29904 60.8184C7.529 60.75 7.74043 60.8265 7.86693 60.9168L7.86543 60.9159C7.97818 60.9847 8.0329 61.0765 8.0643 61.1363C8.0954 61.1988 8.10348 61.2353 8.10049 61.2365C8.08793 61.2482 8.05413 61.0795 7.84629 60.9509L7.8448 60.95C7.72219 60.8702 7.52243 60.8062 7.31638 60.8723C7.11781 60.9327 6.92194 61.1627 6.97995 61.4145C7.00268 61.5227 7.06668 61.6193 7.15161 61.6773C7.23684 61.7359 7.3424 61.7509 7.44138 61.7509C7.64085 61.7428 7.83254 61.7353 7.95933 61.6603C8.09032 61.5855 8.11783 61.4488 8.11634 61.3681C8.11514 61.2835 8.0948 61.2383 8.10049 61.2365Z" fill="#AD3030"/>
<path d="M9.56911 62.3348C9.5718 62.333 9.5739 62.3937 9.50212 62.458C9.43364 62.5259 9.28531 62.5519 9.12831 62.5166C8.94978 62.482 8.76706 62.4467 8.57807 62.4102C8.47579 62.3875 8.36365 62.3758 8.2521 62.3226C8.14445 62.275 8.0332 62.1416 8.08972 61.9963C8.1292 61.9084 8.21263 61.8668 8.285 61.8393C8.35916 61.8127 8.43422 61.7953 8.50809 61.7861C8.65612 61.7672 8.79876 61.7795 8.92556 61.8061C9.04996 61.8306 9.16958 61.8581 9.26558 61.9099C9.36187 61.9601 9.43245 62.0253 9.48568 62.0818L9.46325 62.1061L9.46295 62.1058L9.48478 62.0809C9.62144 62.2152 9.573 62.345 9.56911 62.3348C9.56163 62.3393 9.59423 62.2209 9.46205 62.1049L9.48388 62.08L9.48418 62.0803L9.46175 62.1046C9.40703 62.0528 9.33705 61.9939 9.24524 61.95C9.15373 61.9048 9.04069 61.8815 8.91479 61.8593C8.79159 61.836 8.65582 61.8267 8.51556 61.8459C8.38428 61.8689 8.20814 61.9009 8.14684 62.0205C8.10707 62.1171 8.18452 62.226 8.27902 62.2678C8.37531 62.3154 8.48686 62.33 8.58943 62.3537C8.77723 62.3946 8.95905 62.4344 9.13639 62.4733C9.2898 62.5122 9.41869 62.4948 9.48687 62.4389C9.55655 62.3869 9.56373 62.3321 9.56911 62.3348Z" fill="#AD3030"/>
<path d="M9.79251 63.0457C9.79521 63.0439 9.8281 63.0852 9.89479 63.1563C9.9211 63.1946 9.98091 63.2359 9.97045 63.3247C9.93994 63.4093 9.83647 63.4321 9.75005 63.4228C9.40255 63.3669 8.93814 63.2203 8.47641 62.9509C8.41959 62.9174 8.35589 62.8776 8.3209 62.8088C8.28412 62.7454 8.29279 62.6453 8.35978 62.5989C8.49405 62.5167 8.62354 62.5732 8.73299 62.5828C8.95966 62.6186 9.16481 62.6635 9.32779 62.7299C9.49137 62.7954 9.6098 62.877 9.68486 62.9395C9.76022 63.0014 9.79251 63.0457 9.79251 63.0457C9.78295 63.0579 9.63492 62.8914 9.31194 62.7712C9.15136 62.712 8.9501 62.6725 8.72402 62.6399C8.61397 62.627 8.48328 62.5884 8.39686 62.6477C8.35738 62.6761 8.35051 62.7326 8.37652 62.7813C8.40045 62.8298 8.45248 62.8651 8.5081 62.8974C8.96056 63.1623 9.42169 63.3142 9.75453 63.3791C9.83498 63.3917 9.91662 63.3681 9.93725 63.3151C9.94951 63.2625 9.90107 63.2084 9.87625 63.1719C9.81554 63.0962 9.78803 63.0484 9.79251 63.0457Z" fill="#AD3030"/>
<path d="M2.6746 59.2493C2.67251 59.2939 2.47903 59.3166 2.25923 59.3908C2.03823 59.462 1.86957 59.5586 1.84116 59.5242C1.81275 59.494 1.95779 59.3253 2.21048 59.2428C2.46258 59.159 2.67939 59.2081 2.6746 59.2493Z" fill="white"/>
<path d="M1.69521 61.855C1.68744 61.8705 1.56274 61.8313 1.40992 61.6911C1.25711 61.5532 1.09532 61.3014 1.03611 60.9889C0.978097 60.6761 1.03761 60.3825 1.13001 60.1988C1.22182 60.0128 1.3238 59.9312 1.33666 59.9429C1.35669 59.9581 1.2903 60.061 1.23229 60.2398C1.17308 60.418 1.13779 60.6791 1.18923 60.9602C1.24275 61.2407 1.37045 61.4713 1.49037 61.616C1.60909 61.7617 1.70867 61.8331 1.69521 61.855Z" fill="white"/>
<path d="M79.2894 33.177C77.1931 34.5051 71.7023 38.954 73.2714 42.2588C74.0208 43.8369 74.807 45.2158 77.2646 45.0235C80.4734 44.7723 85.7252 42.0952 87.2184 41.2648C88.9582 40.297 92.4045 38.1606 93.2597 35.8341C93.7526 34.4934 93.0546 32.7243 92.0591 31.8436C89.6 29.668 83.8702 30.2751 79.2894 33.177Z" fill="#AD3030"/>
<path d="M79.4518 33.2996C78.462 33.9202 71.3384 38.7701 73.731 42.4269C75.8312 45.6369 83.4016 41.3177 86.1442 39.7923C88.8868 38.2668 93.8393 34.7808 92.0199 32.2216C90.036 29.4312 83.3813 30.8361 79.4518 33.2996Z" fill="#F75757"/>
<path d="M81.8489 37.8373C81.8439 37.8331 81.9503 37.8412 82.0248 37.9809C82.0616 38.0467 82.0828 38.1468 82.0532 38.2524C82.0269 38.3586 81.9638 38.465 81.889 38.5742C81.5986 39.0123 81.0248 39.5515 80.2108 39.7333C80.1578 39.7375 80.0956 39.733 80.046 39.6935C79.9963 39.6558 79.9766 39.5883 79.9847 39.5332C79.9999 39.4214 80.0639 39.3409 80.11 39.2596C80.2084 39.0969 80.3056 38.9405 80.4075 38.7973C80.6085 38.5081 80.8382 38.2826 81.0529 38.1253C81.267 37.9653 81.4727 37.8831 81.6187 37.8532C81.7655 37.8242 81.8489 37.8373 81.8489 37.8373C81.8486 37.8439 81.7667 37.8412 81.6246 37.8771C81.4835 37.9136 81.2864 37.9997 81.0798 38.1609C80.8719 38.3203 80.6504 38.5437 80.4548 38.8308C80.3555 38.9731 80.2598 39.1286 80.1626 39.2916C80.1154 39.3735 80.0567 39.454 80.0469 39.5401C80.0322 39.6283 80.1115 39.6857 80.2063 39.6714C80.9823 39.497 81.5624 38.9737 81.8531 38.5494C81.9294 38.4429 81.9925 38.3418 82.02 38.2437C82.0505 38.1456 82.0346 38.0565 82.0035 37.9919C81.9398 37.8574 81.8441 37.8418 81.8489 37.8373Z" fill="#AD3030"/>
<path d="M83.1588 37.3176C83.1495 37.3239 83.1869 37.2192 83.3304 37.2372C83.398 37.2479 83.4656 37.2991 83.5299 37.3613C83.5954 37.4226 83.6704 37.4923 83.7482 37.5757C83.8995 37.7378 84.0822 37.977 84.0804 38.2955C84.081 38.4519 84.0101 38.6161 83.8887 38.7339C83.7688 38.8535 83.6109 38.9379 83.4384 38.9809C83.2661 39.0234 83.0789 39.0126 82.927 38.9316C82.7754 38.8544 82.6611 38.7106 82.6342 38.5536C82.6049 38.3978 82.6372 38.2512 82.6701 38.1227C82.7051 37.9938 82.7383 37.8748 82.7784 37.7671C82.8549 37.5506 82.9808 37.3996 83.0894 37.3302C83.1979 37.2584 83.2727 37.2566 83.2727 37.2566C83.2751 37.2629 83.2033 37.2752 83.1034 37.3499C83.0033 37.4232 82.8893 37.5694 82.8199 37.782C82.7838 37.8873 82.7529 38.0075 82.7204 38.1352C82.6898 38.2623 82.6626 38.4026 82.6907 38.5425C82.7162 38.6822 82.8169 38.8075 82.9551 38.8775C83.0924 38.9498 83.2625 38.96 83.4237 38.9202C83.7452 38.8443 84.0269 38.5901 84.023 38.294C84.0284 38.0012 83.8609 37.7683 83.7153 37.6053C83.5604 37.4474 83.442 37.291 83.3253 37.2611C83.2003 37.2372 83.1585 37.3245 83.1588 37.3176Z" fill="#AD3030"/>
<path d="M85.8873 36.1279C85.8873 36.1279 85.9654 36.1297 86.0739 36.2092C86.1274 36.2484 86.1872 36.3067 86.2345 36.3901C86.2785 36.4709 86.3185 36.5914 86.2596 36.7095C86.1116 36.909 85.8529 37.0462 85.5619 37.1455C85.2772 37.2514 84.9232 37.3563 84.564 37.2481C84.3933 37.1943 84.2165 37.0872 84.1648 36.903C84.1166 36.7077 84.2662 36.5555 84.3873 36.47C84.646 36.292 84.9109 36.1895 85.1388 36.1329C85.367 36.0773 85.5589 36.0612 85.6905 36.0752C85.8227 36.089 85.8873 36.1279 85.8873 36.1279C85.8858 36.1335 85.8176 36.1051 85.689 36.0992C85.5607 36.0926 85.3729 36.1153 85.1501 36.1754C84.9283 36.2361 84.6693 36.342 84.4214 36.5163C84.3041 36.6007 84.1833 36.7358 84.224 36.888C84.265 37.0373 84.4217 37.1395 84.5826 37.1889C84.9175 37.2906 85.2587 37.1943 85.5422 37.0917C85.832 36.9987 86.0847 36.8611 86.221 36.6886C86.2725 36.5941 86.2432 36.4837 86.204 36.4066C86.1627 36.327 86.1086 36.2687 86.0596 36.2286C85.96 36.1464 85.8837 36.135 85.8873 36.1279Z" fill="#AD3030"/>
<path d="M80.4258 37.8052C80.4258 37.8052 80.4462 37.8028 80.4832 37.813C80.5179 37.8225 80.5816 37.847 80.6082 37.9227C80.657 38.077 80.526 38.2905 80.3113 38.4296C80.0993 38.5731 79.8466 38.7433 79.5433 38.8973C79.3917 38.9736 79.2272 39.0453 79.0487 39.0977C78.8696 39.1434 78.6827 39.2026 78.4742 39.1682C78.3722 39.1533 78.2643 39.0624 78.2673 38.946C78.2691 38.8333 78.3355 38.7493 78.3977 38.6799C78.5319 38.548 78.6683 38.4359 78.8065 38.3357C79.0819 38.135 79.3636 38.0043 79.6076 37.9248C80.1019 37.7726 80.4258 37.8052 80.4258 37.8052C80.4276 37.8213 80.1049 37.8064 79.622 37.9664C79.3833 38.0498 79.1094 38.1823 78.8406 38.3817C78.7066 38.4804 78.5696 38.5953 78.4425 38.7212C78.3842 38.7852 78.3289 38.8638 78.3295 38.9451C78.3292 39.0277 78.3992 39.0917 78.488 39.1075C78.6668 39.1386 78.8597 39.0836 79.0317 39.0393C79.206 38.9891 79.3678 38.92 79.5179 38.8462C79.8179 38.6972 80.0732 38.531 80.2865 38.3934C80.4991 38.263 80.6211 38.0653 80.5852 37.9302C80.5664 37.865 80.5116 37.8381 80.4793 37.8252C80.4453 37.8112 80.4255 37.8082 80.4258 37.8052Z" fill="#AD3030"/>
<path d="M80.8902 36.5662C80.8902 36.5662 80.9716 36.588 81.0484 36.7083C81.0843 36.7669 81.1112 36.8611 81.0759 36.9592C81.0433 37.0569 80.9584 37.1455 80.8498 37.2068C80.6294 37.3189 80.3675 37.4412 80.0541 37.5339C79.7449 37.6219 79.3615 37.6595 79.0077 37.5004C78.9805 37.4888 78.9551 37.4741 78.9309 37.4619L78.9294 37.461L78.9273 37.4595C78.9102 37.4466 78.8947 37.4349 78.8797 37.4239L78.8758 37.4209L78.8734 37.4173C78.7547 37.2501 78.8142 37.0264 78.9371 36.9044C79.0612 36.7758 79.223 36.7178 79.369 36.673C79.6638 36.5889 79.9303 36.5193 80.1602 36.4891C80.3896 36.4583 80.5789 36.4624 80.706 36.4894C80.8343 36.5166 80.8902 36.5662 80.8902 36.5662C80.8878 36.5716 80.8271 36.5318 80.7021 36.5124C80.5777 36.4932 80.3917 36.4956 80.1668 36.5315C79.9416 36.5668 79.6773 36.6407 79.3857 36.7271C79.2431 36.7723 79.0905 36.8309 78.9814 36.946C78.8719 37.0549 78.828 37.248 78.9234 37.3805L78.9171 37.3742C78.9324 37.3856 78.9479 37.3973 78.9646 37.4098L78.9614 37.4077C78.9841 37.4194 79.008 37.4331 79.0337 37.4439C79.3669 37.594 79.7359 37.562 80.0388 37.4789C80.3442 37.3922 80.6127 37.2723 80.828 37.1688C80.9324 37.1129 81.0107 37.0342 81.043 36.9478C81.0774 36.8617 81.0574 36.7776 81.0269 36.7205C80.962 36.6036 80.8845 36.5719 80.8902 36.5662Z" fill="#AD3030"/>
<path d="M82.5434 34.694C82.5434 34.694 82.6202 34.706 82.7279 34.79C82.8298 34.8671 82.9779 35.0526 82.9279 35.3055C82.8792 35.5535 82.689 35.7792 82.4883 36.0215C82.3825 36.1387 82.2452 36.2556 82.0673 36.2969C81.892 36.3376 81.6967 36.3056 81.5347 36.2087C81.3475 36.1022 81.2278 35.9099 81.1884 35.7173C81.1471 35.5236 81.1755 35.3271 81.2515 35.1665C81.4103 34.8414 81.7129 34.6832 81.9435 34.6342L81.942 34.6345C82.1337 34.5789 82.293 34.6109 82.3932 34.6363C82.4943 34.6641 82.5434 34.694 82.5434 34.694C82.5419 34.6985 82.4889 34.6781 82.3878 34.6569C82.2883 34.6381 82.1325 34.6144 81.9536 34.6722L81.953 34.6725L81.9521 34.6728C81.7314 34.7263 81.4464 34.8842 81.302 35.1904C81.1594 35.4817 81.2135 35.9521 81.5664 36.1554C81.7153 36.2449 81.8953 36.2742 82.0535 36.238C82.2132 36.2018 82.3424 36.0956 82.4462 35.9832C82.6456 35.7484 82.8367 35.5242 82.8849 35.2975C82.9366 35.066 82.8071 34.8905 82.7126 34.8091C82.6133 34.7221 82.5401 34.7003 82.5434 34.694Z" fill="#AD3030"/>
<path d="M85.3117 34.1863C85.3117 34.1863 85.3269 34.1992 85.344 34.2321C85.3601 34.2649 85.3772 34.3188 85.3742 34.3897C85.3769 34.5353 85.2534 34.724 85.0494 34.8624C84.8368 35.0168 84.6038 35.1857 84.3532 35.3675C84.2208 35.4587 84.0898 35.5721 83.9175 35.6403C83.7551 35.7102 83.4998 35.6938 83.402 35.491C83.3469 35.3625 83.3849 35.2291 83.4292 35.1208C83.4758 35.0111 83.5338 34.9094 83.5999 34.8173C83.7318 34.6325 83.8924 34.4853 84.0536 34.3705C84.2109 34.2554 84.3646 34.1501 84.5207 34.0957C84.6759 34.0395 84.8212 34.0272 84.94 34.0248L84.9427 34.0577H84.9418L84.9385 34.0248C85.076 34.0236 85.1828 34.0538 85.2399 34.1029C85.2982 34.148 85.3117 34.1863 85.3117 34.1863C85.312 34.198 85.2133 34.0329 84.9403 34.058L84.937 34.0251H84.9379L84.9406 34.058C84.8242 34.0646 84.6837 34.0807 84.5363 34.1379C84.3879 34.1935 84.242 34.2969 84.0853 34.4145C83.9292 34.5287 83.7752 34.6728 83.649 34.852C83.5856 34.9411 83.5303 35.0395 83.486 35.1444C83.4435 35.247 83.4148 35.3663 83.4585 35.4653C83.5321 35.6226 83.7465 35.6471 83.896 35.5832C84.0536 35.5221 84.1864 35.4115 84.3197 35.3206C84.573 35.143 84.8087 34.9776 85.0234 34.8266C85.2274 34.6932 85.344 34.5242 85.35 34.3873C85.3619 34.2527 85.3045 34.1884 85.3117 34.1863Z" fill="#AD3030"/>
<path d="M86.3446 34.6765C86.3446 34.6765 86.4263 34.6822 86.5755 34.6834C86.6452 34.6936 86.7546 34.6741 86.8363 34.7722C86.8955 34.8871 86.8171 35.0231 86.7169 35.109C86.2923 35.4373 85.6425 35.8051 84.8599 36.0429C84.7633 36.0719 84.655 36.1006 84.5473 36.0698C84.4424 36.0456 84.3467 35.9397 84.3631 35.8246C84.4065 35.6012 84.6018 35.5109 84.7277 35.3984C85.0037 35.1804 85.2666 34.9962 85.5094 34.8808C85.7519 34.7644 85.966 34.7148 86.1135 34.6936C86.2612 34.6714 86.3446 34.6765 86.3446 34.6765C86.3488 34.6957 86.0052 34.684 85.5288 34.9205C85.2929 35.039 85.0366 35.2238 84.7633 35.4436C84.6347 35.5545 84.4514 35.6577 84.4238 35.8306C84.4131 35.9134 84.4777 35.9882 84.5644 36.0103C84.6499 36.0351 84.7468 36.0124 84.8419 35.9834C85.6146 35.7495 86.2663 35.3877 86.6876 35.0764C86.786 34.9971 86.8488 34.8766 86.8063 34.7905C86.7522 34.7154 86.6413 34.7181 86.5737 34.7079C86.4254 34.6993 86.3434 34.6825 86.3446 34.6765Z" fill="#AD3030"/>
<path d="M74.6452 38.7267C74.6775 38.7587 74.4832 38.9914 74.3333 39.3245C74.1793 39.6555 74.1303 39.9549 74.0851 39.9513C74.0445 39.9522 74.0247 39.6215 74.1919 39.2596C74.3561 38.8969 74.6192 38.6953 74.6452 38.7267Z" fill="white"/>
<path d="M76.5558 42.5478C76.5618 42.5619 76.386 42.6504 76.0738 42.6686C75.764 42.6893 75.3223 42.6055 74.9159 42.3507C74.5106 42.0942 74.2442 41.7317 74.1291 41.4434C74.0106 41.154 74.0148 40.9572 74.0298 40.9563C74.057 40.9512 74.0923 41.1363 74.2286 41.3962C74.3623 41.6561 74.6213 41.9793 74.999 42.2189C75.3779 42.456 75.781 42.5502 76.0735 42.5586C76.3665 42.5693 76.549 42.5212 76.5558 42.5478Z" fill="white"/>
<path d="M41.4453 63.2322C46.3661 65.2535 49.196 64.8512 53.1533 65.8584C57.7141 67.019 62.707 66.0719 67.033 64.219C69.1093 63.3297 71.4092 62.0755 73.4811 62.9753C73.9257 63.1685 74.3253 63.4529 74.7643 63.6583C75.3041 63.911 75.8923 64.039 76.4727 64.1736C77.7018 64.4586 79.0236 64.8494 79.756 65.877C80.488 66.9045 80.1157 68.7245 78.8669 68.9039C79.4659 69.0526 79.6444 69.851 79.4734 70.444C79.3023 71.037 78.9103 71.5559 78.7951 72.1623C78.6268 73.0514 79.0795 73.9279 79.5176 74.7198C81.5368 74.5867 83.4058 76.6092 83.1146 78.6116C83.0512 79.0467 82.9038 79.4723 82.9094 79.9119C82.916 80.4158 83.1232 80.8948 83.1884 81.3946C83.3649 82.7492 82.314 84.1461 80.9632 84.3518C81.0395 85.8827 80.0457 87.4081 78.6145 87.9569C79.2219 88.1165 79.663 88.7559 79.5966 89.3803C79.5302 90.0047 78.9644 90.537 78.337 90.5654C79.4931 92.5293 78.1357 95.46 75.8905 95.8484C75.8866 97.535 74.6769 98.9466 73.5367 100.189C72.9745 100.802 72.3477 101.451 71.5265 101.581C70.1823 101.793 69.0184 100.539 67.6613 100.439C67.0701 100.396 66.4824 100.577 65.89 100.562C65.2973 100.547 64.6289 100.233 64.5288 99.6487C64.378 100.371 63.5156 100.753 62.7868 100.64C62.058 100.526 61.442 100.058 60.86 99.6045C62.0825 101.403 61.6648 104.117 59.9581 105.465C58.2514 106.812 55.514 106.589 54.0486 104.982C53.8489 105.701 53.0088 106.084 52.2654 106.019C51.522 105.953 50.8557 105.553 50.2196 105.163C49.8267 106.129 49.2749 107.23 48.2471 107.41C47.9253 107.466 47.5808 107.423 47.2833 107.557C46.7812 107.784 46.6209 108.399 46.4116 108.908C45.9406 110.056 44.884 110.981 43.6561 111.155C42.4279 111.33 41.0891 110.667 40.6031 109.526C40.4617 110.379 39.6635 111.075 38.799 111.1C37.9345 111.124 37.0983 110.475 36.9081 109.631C36.0507 110.331 34.7451 109.814 33.906 109.093C32.3509 107.756 31.3793 105.763 31.2833 103.715C31.0306 104.474 29.9756 104.69 29.26 104.333C28.5444 103.975 28.1036 103.244 27.7235 102.541C27.6924 103.749 26.6702 104.854 25.4675 104.978C24.2692 105.102 23.1196 104.335 22.4432 103.339C21.7667 102.342 21.471 101.143 21.1878 99.972C20.6988 97.951 20.2069 95.8679 20.5212 93.8125C20.7042 92.6157 21.1549 91.4787 21.602 90.3537C22.2638 88.6886 22.9285 87.0175 23.8128 85.4595C25.8126 81.9352 28.8422 79.1358 31.5558 76.1265C34.269 73.1169 37.9617 68.967 38.5281 64.9547C38.7015 63.7271 38.4685 62.553 38.601 62.3398C38.9138 61.8368 41.4453 63.2322 41.4453 63.2322Z" fill="#65AB44"/>
<path d="M38.6014 62.3389C38.6023 62.3365 38.628 62.343 38.6776 62.358C38.7356 62.3768 38.8074 62.4002 38.8965 62.4292C39.0882 62.4938 39.3708 62.5892 39.7315 62.7213C40.4543 62.9815 41.4929 63.3777 42.7668 63.8906C45.3198 64.902 48.7905 66.4391 52.7574 67.7806C54.7332 68.4696 56.6567 69.0109 58.4516 69.2564C60.2438 69.5109 61.8831 69.5322 63.2474 69.4254C64.614 69.3291 65.7047 69.1054 66.4508 68.935C66.8243 68.8488 67.112 68.7723 67.3064 68.7175C67.397 68.6942 67.4699 68.6754 67.5292 68.6601C67.5797 68.6482 67.6057 68.6431 67.6066 68.6458C67.6075 68.6485 67.5827 68.6583 67.5339 68.6754C67.4762 68.6945 67.4042 68.7181 67.3156 68.7478C67.1236 68.8123 66.8381 68.8985 66.4654 68.9939C65.7214 69.1829 64.6293 69.4242 63.2564 69.5351C61.8861 69.6566 60.2363 69.6467 58.4315 69.3985C56.6238 69.1595 54.6854 68.6183 52.7066 67.9281C48.7328 66.5838 45.2648 65.0291 42.7252 63.9926C41.4576 63.4669 40.4259 63.0557 39.7102 62.7782C39.3613 62.643 39.0858 62.5362 38.8861 62.4588C38.7993 62.4238 38.7291 62.3957 38.6725 62.3729C38.6244 62.3529 38.6005 62.3413 38.6014 62.3389Z" fill="white"/>
<path d="M65.2289 71.5225C65.2286 71.5252 65.2043 71.5255 65.1571 71.524C65.1006 71.521 65.0321 71.5171 64.948 71.5126C64.7516 71.5007 64.4836 71.4842 64.1454 71.4636C63.448 71.4241 62.4381 71.3999 61.1884 71.3622C59.9414 71.3144 58.4429 71.2626 56.816 70.9199C55.1791 70.596 53.5056 69.82 51.8097 68.9585C48.3892 67.2847 45.2937 65.7697 43.0383 64.6659C41.9286 64.1148 41.0263 63.6668 40.3879 63.3498C40.0858 63.1961 39.8463 63.0744 39.6707 62.985C39.5966 62.9455 39.5359 62.9132 39.4859 62.8866C39.4447 62.8636 39.4243 62.8507 39.4255 62.8483C39.4267 62.8459 39.4497 62.854 39.4931 62.8722C39.5448 62.895 39.6076 62.9228 39.6848 62.9569C39.8636 63.0397 40.1071 63.1527 40.4151 63.2957C41.0586 63.6019 41.9686 64.0349 43.0877 64.5675C45.3482 65.6609 48.4511 67.1612 51.8794 68.8191C53.5753 69.6807 55.2299 70.4516 56.8462 70.7794C58.4554 71.1263 59.9474 71.19 61.1926 71.2519C62.4402 71.3036 63.4519 71.3446 64.149 71.4026C64.4977 71.431 64.768 71.457 64.9507 71.4809C65.0342 71.4917 65.1024 71.5007 65.1586 71.5078C65.2055 71.515 65.2292 71.5198 65.2289 71.5225Z" fill="white"/>
<path d="M69.6291 86.0147C69.6282 86.0171 69.5953 86.0081 69.5322 85.9875C69.4613 85.9636 69.3689 85.9322 69.2526 85.893C69.0079 85.806 68.6431 85.6878 68.1864 85.5012C67.2672 85.1448 65.9505 84.5826 64.4044 83.7288C63.6299 83.3053 62.8018 82.8047 61.9361 82.2318C61.0763 81.6501 60.1771 80.9988 59.2742 80.258C57.4701 78.7772 55.6516 76.9407 53.988 74.824C53.1408 73.7798 52.327 72.7489 51.4544 71.8342C50.5866 70.9155 49.6748 70.1006 48.7803 69.3577C46.9846 67.8778 45.2579 66.6819 43.7979 65.6983C42.3338 64.7189 41.1283 63.9572 40.2973 63.4273C39.8885 63.1663 39.5679 62.9617 39.3406 62.8167C39.2377 62.7491 39.1561 62.6959 39.0936 62.6549C39.0386 62.6178 39.0108 62.5975 39.0122 62.5951C39.0137 62.5927 39.0439 62.6085 39.102 62.6411C39.1666 62.6788 39.2506 62.7279 39.3571 62.7898C39.5879 62.9288 39.9136 63.1253 40.3293 63.3756C41.1702 63.8897 42.3852 64.6376 43.8586 65.6062C45.3281 66.5793 47.0641 67.7677 48.8713 69.2468C49.7714 69.9893 50.6895 70.8054 51.5651 71.7295C52.4452 72.6494 53.2622 73.6823 54.1088 74.726C55.7697 76.839 57.5723 78.665 59.3651 80.1471C60.2617 80.8878 61.1543 81.5403 62.0078 82.1244C62.867 82.6998 63.6888 83.2043 64.4573 83.6325C65.9911 84.4958 67.298 85.0718 68.2083 85.445C68.6607 85.64 69.0217 85.7671 69.2624 85.8634C69.3767 85.9088 69.4673 85.9447 69.5369 85.9725C69.5988 85.998 69.63 86.012 69.6291 86.0147Z" fill="white"/>
<path d="M56.6426 94.1429C56.6399 94.1435 56.631 94.1118 56.6157 94.0493C56.5996 93.9784 56.5786 93.8866 56.5523 93.7712C56.4976 93.5161 56.4207 93.1566 56.3229 92.6988C56.1235 91.7675 55.8439 90.4182 55.4626 88.7591C55.0771 87.1018 54.5912 85.1326 53.9036 82.9914C53.5681 81.9181 53.1611 80.8101 52.7075 79.6749C52.2314 78.5496 51.7233 77.3878 51.092 76.2553C50.9446 75.9664 50.7819 75.6886 50.6168 75.4141C50.4514 75.1402 50.298 74.8615 50.1264 74.5968C49.778 74.0708 49.4472 73.5436 49.0803 73.0549C48.3575 72.0699 47.5949 71.1676 46.847 70.3285C45.3479 68.652 43.899 67.2319 42.6675 66.0581C41.4331 64.8864 40.4082 63.9654 39.6989 63.3305C39.3496 63.0189 39.0754 62.7743 38.8807 62.6005C38.7931 62.5207 38.7234 62.4576 38.6696 62.4085C38.6226 62.3646 38.5993 62.3412 38.6011 62.3391C38.6029 62.337 38.6295 62.3565 38.68 62.3966C38.7362 62.4426 38.8092 62.5018 38.901 62.5769C39.0948 62.7363 39.3777 62.9743 39.7387 63.285C40.4609 63.9062 41.4974 64.8153 42.7429 65.9783C43.9857 67.1433 45.4445 68.5569 46.9538 70.2331C47.7068 71.0719 48.4744 71.9754 49.2032 72.9649C49.5731 73.4562 49.9066 73.9856 50.2574 74.5143C50.4302 74.7801 50.5848 75.0603 50.7511 75.3358C50.9168 75.6115 51.0806 75.8908 51.2287 76.1812C51.8632 77.3193 52.3725 78.4868 52.8486 79.6172C53.302 80.7578 53.7075 81.8705 54.04 82.948C54.7221 85.0976 55.1976 87.0728 55.5696 88.7349C55.9375 90.3985 56.2006 91.7517 56.3819 92.6868C56.4677 93.147 56.535 93.5086 56.5825 93.7652C56.6026 93.8821 56.6184 93.9748 56.6307 94.0463C56.6414 94.1094 56.6453 94.1423 56.6426 94.1429Z" fill="white"/>
<path d="M41.4887 101.028C41.486 101.028 41.4839 100.993 41.4824 100.927C41.4818 100.852 41.4809 100.753 41.48 100.63C41.4824 100.369 41.4734 99.9831 41.4979 99.4879C41.526 98.4965 41.628 97.0632 41.8272 95.3015C42.0174 93.5389 42.3119 91.4483 42.5204 89.1172C42.6205 87.9518 42.6983 86.7254 42.7025 85.4536C42.7067 84.1814 42.6077 82.8674 42.4441 81.528C42.1146 78.8473 41.5607 76.3284 41.0431 74.0452C40.515 71.7632 40.012 69.7132 39.6286 67.9823C39.2431 66.252 38.9707 64.8426 38.8134 63.8635C38.7287 63.3752 38.6845 62.9924 38.6465 62.734C38.6307 62.6114 38.6184 62.5139 38.6088 62.4395C38.6013 62.3731 38.5987 62.3387 38.6013 62.3384C38.604 62.3381 38.6118 62.3716 38.6247 62.4371C38.6381 62.5109 38.6555 62.6075 38.6776 62.7292C38.7255 62.9858 38.7793 63.3665 38.8732 63.8531C39.0487 64.8279 39.337 66.232 39.7359 67.9578C40.1486 69.6842 40.6388 71.7357 41.183 74.0126C41.7088 76.2958 42.268 78.818 42.599 81.5085C42.7632 82.8522 42.8616 84.1748 42.8553 85.4536C42.849 86.7317 42.768 87.9617 42.6633 89.1298C42.4465 91.4656 42.1406 93.5542 41.9366 95.3138C41.7237 97.0722 41.6053 98.501 41.5586 99.4903C41.5248 99.9846 41.5239 100.369 41.5114 100.63C41.506 100.753 41.5018 100.851 41.4985 100.926C41.4943 100.993 41.491 101.028 41.4887 101.028Z" fill="white"/>
<path d="M44.6879 95.4066C44.6771 95.4066 44.6634 95.2433 44.6475 94.9481C44.6337 94.653 44.6059 94.2262 44.5632 93.7002C44.4797 92.6479 44.3027 91.1993 44.0105 89.6146C43.7169 88.03 43.3804 86.6089 43.1304 85.582C43.0105 85.0894 42.9106 84.68 42.8341 84.3654C42.7653 84.0777 42.7321 83.9172 42.7426 83.9145C42.753 83.9115 42.806 84.0667 42.8927 84.3496C42.98 84.6325 43.0984 85.044 43.2372 85.5545C43.5147 86.5757 43.8691 87.9962 44.1636 89.5862C44.4567 91.1762 44.6176 92.6341 44.6729 93.6921C44.7016 94.2212 44.713 94.65 44.7079 94.946C44.7052 95.243 44.6986 95.4066 44.6879 95.4066Z" fill="white"/>
<path d="M32.8561 94.3603C32.8513 94.3579 32.886 94.2738 32.9563 94.1162C33.0337 93.947 33.1387 93.7182 33.2706 93.4299C33.412 93.1345 33.5756 92.7684 33.7595 92.3411C33.9473 91.9152 34.1611 91.4308 34.3785 90.8868C34.8349 89.8082 35.3208 88.5004 35.843 87.0429C36.348 85.579 36.8696 83.9585 37.3645 82.2413C37.8523 80.5215 38.267 78.8699 38.6172 77.3609C38.9519 75.8489 39.2389 74.4835 39.4387 73.3291C39.5479 72.7535 39.6322 72.2304 39.7064 71.7711C39.7841 71.3121 39.8466 70.9164 39.8918 70.5916C39.9396 70.2782 39.9779 70.0297 40.006 69.8455C40.0338 69.6751 40.0512 69.586 40.0562 69.5866C40.0616 69.5871 40.0547 69.6778 40.0371 69.8494C40.0162 70.0345 39.9878 70.2845 39.9519 70.5997C39.916 70.9257 39.8622 71.3234 39.7925 71.784C39.7264 72.2451 39.6495 72.7702 39.5473 73.3477C39.361 74.5059 39.0849 75.8758 38.7572 77.392C38.4145 78.9049 38.003 80.5607 37.5143 82.2835C37.0185 84.0036 36.4919 85.6263 35.9784 87.0901C35.4479 88.5477 34.9503 89.8539 34.4802 90.929C34.2559 91.4712 34.0346 91.9535 33.839 92.3764C33.6474 92.801 33.4757 93.1638 33.3256 93.4556C33.1823 93.7385 33.0687 93.9634 32.9847 94.1297C32.9051 94.2834 32.8612 94.3626 32.8561 94.3603Z" fill="white"/>
<path d="M23.7243 102.785C23.7168 102.792 23.5969 102.674 23.3852 102.452C23.3334 102.395 23.2709 102.336 23.2123 102.264C23.1555 102.187 23.0951 102.106 23.0308 102.02C22.9653 101.931 22.8959 101.837 22.8233 101.739C22.7566 101.635 22.6932 101.52 22.6229 101.402C22.3325 100.934 22.0822 100.324 21.86 99.6336C21.6486 98.9377 21.5084 98.1482 21.4378 97.3139C21.3086 95.6392 21.5442 94.1209 21.8319 93.0662C21.8944 92.7992 21.98 92.5659 22.0484 92.3595C22.1136 92.152 22.1818 91.9777 22.2455 91.838C22.3657 91.5563 22.4366 91.4035 22.4465 91.4077C22.4563 91.4119 22.4043 91.5731 22.302 91.8595C22.2476 92.0016 22.1881 92.1777 22.1313 92.3865C22.0712 92.594 21.9937 92.8273 21.9387 93.0937C21.6806 94.1461 21.4653 95.6485 21.593 97.3022C21.663 98.1258 21.7966 98.9051 21.9976 99.5929C22.209 100.276 22.4444 100.88 22.7186 101.348C23.2446 102.298 23.7557 102.758 23.7243 102.785Z" fill="white"/>
<path d="M29.112 103.408C29.0812 103.434 28.7358 103.056 28.4642 102.491C28.1897 101.928 28.1075 101.422 28.1473 101.414C28.1915 101.403 28.338 101.878 28.6045 102.423C28.8671 102.971 29.1482 103.38 29.112 103.408Z" fill="white"/>
<path d="M34.473 108.104C34.4673 108.113 34.3913 108.075 34.2571 107.997C34.1213 107.921 33.9374 107.791 33.7245 107.613C33.5098 107.437 33.2774 107.198 33.0453 106.912C32.8196 106.622 32.5977 106.281 32.4122 105.898C32.2316 105.512 32.1063 105.125 32.0229 104.766C31.9469 104.406 31.9084 104.076 31.9066 103.798C31.9024 103.52 31.917 103.295 31.9442 103.143C31.9682 102.99 31.9864 102.906 31.9972 102.908C32.0259 102.911 31.9804 103.25 32.0166 103.793C32.0322 104.064 32.0812 104.385 32.1625 104.734C32.2514 105.081 32.377 105.456 32.5528 105.831C32.7331 106.203 32.9449 106.537 33.1587 106.825C33.3785 107.108 33.5965 107.348 33.7974 107.531C34.1967 107.901 34.4885 108.079 34.473 108.104Z" fill="white"/>
<path d="M42.7513 110.169C42.7444 110.209 42.1894 110.003 41.7958 109.425C41.3954 108.851 41.4011 108.259 41.4402 108.266C41.4872 108.258 41.5497 108.803 41.9241 109.336C42.2886 109.876 42.7755 110.128 42.7513 110.169Z" fill="white"/>
<path d="M52.0355 105.087C52.0265 105.101 51.8327 105.009 51.5726 104.782C51.3124 104.558 50.9996 104.185 50.7789 103.704C50.56 103.222 50.4825 102.741 50.4834 102.398C50.4831 102.053 50.54 101.846 50.5567 101.849C50.5824 101.852 50.5651 102.061 50.5932 102.393C50.6201 102.724 50.711 103.178 50.9203 103.639C51.1318 104.099 51.4156 104.465 51.6482 104.703C51.8806 104.941 52.0501 105.065 52.0355 105.087Z" fill="white"/>
<path d="M55.8247 105.318C55.8178 105.326 55.7532 105.281 55.6417 105.19C55.5281 105.102 55.3791 104.955 55.2123 104.76C55.043 104.565 54.8693 104.31 54.7051 104.011C54.5475 103.708 54.4039 103.359 54.3032 102.978C54.2075 102.595 54.1653 102.22 54.1575 101.879C54.1572 101.537 54.1868 101.23 54.2416 100.978C54.2936 100.726 54.3534 100.526 54.4105 100.394C54.4646 100.261 54.4993 100.19 54.5092 100.194C54.5364 100.204 54.4243 100.5 54.3498 100.997C54.31 101.245 54.293 101.545 54.3008 101.876C54.316 102.206 54.3612 102.569 54.4539 102.94C54.5514 103.309 54.6862 103.648 54.8322 103.945C54.9844 104.239 55.1438 104.493 55.2981 104.691C55.6031 105.091 55.8439 105.296 55.8247 105.318Z" fill="white"/>
<path opacity="0.3" d="M27.2094 84.1985C28.4182 84.5966 29.7295 84.5912 30.9439 84.9722C32.1584 85.3532 33.3551 86.3239 33.3551 87.5966C33.3551 88.3409 32.9574 89.1532 33.3527 89.7841C34.24 88.5518 34.7445 87.0479 34.7798 85.5296C35.8157 85.9743 36.8519 86.419 37.8878 86.8636C38.5263 87.1376 39.1917 87.4318 39.6235 87.9761C41.0487 89.7734 39.0015 92.7357 40.2969 94.6287C40.8158 93.0782 41.1118 91.4531 41.1731 89.8191C42.9073 91.0781 41.4231 94.4834 43.2231 95.6461C43.183 94.1577 43.0894 92.6709 42.9426 91.1891C44.9845 93.173 47.1577 95.0223 49.4427 96.7206C50.0288 97.1563 50.6604 97.5971 51.3874 97.6679C53.1114 97.8357 54.2601 95.9831 54.97 94.4032C55.3005 94.8431 55.6309 95.2827 55.9617 95.7223C56.7048 94.9053 56.1369 93.5877 56.3917 92.5133C56.6055 91.6101 57.3803 90.9666 58.1094 90.3921C60.7132 88.34 63.7288 86.1693 67.0103 86.6427C66.3015 86.3696 66.2202 85.32 66.6562 84.6982C67.0925 84.0765 67.8359 83.7658 68.519 83.4336C71.9188 81.7783 74.6261 78.8818 76.4303 75.5584C78.2344 72.2351 78.6881 67.0455 76.9623 64.2933L76.9611 64.293C76.9596 64.293 76.9219 64.2903 76.8564 64.287V64.2667C76.7284 64.2344 76.6004 64.203 76.4736 64.1734C75.8932 64.0388 75.305 63.9108 74.7652 63.6581C74.3262 63.4527 73.9266 63.1683 73.482 62.9751C71.4102 62.0753 69.1102 63.3295 67.0339 64.2189C62.7079 66.0718 57.715 67.0188 53.1542 65.8582C49.1969 64.8513 46.3667 65.2533 41.4462 63.232C41.4462 63.232 38.9144 61.8366 38.6019 62.3387C38.4695 62.5517 38.7021 63.726 38.529 64.9536C37.9623 68.9659 34.2699 73.1158 31.5567 76.1254C29.7648 78.1129 27.8362 80.0101 26.1562 82.0837C26.134 83.0514 26.2459 83.8812 27.2094 84.1985Z" fill="black"/>
<path d="M10.9325 82.2642C9.53836 79.9496 7.14418 78.9032 4.44647 78.7528C3.69257 78.7106 2.90877 78.7788 2.24339 79.1352C1.57801 79.4917 1.05557 80.1849 1.07082 80.9397C1.08667 81.7307 1.68297 82.4188 2.39231 82.7687C4.54396 83.8297 7.22492 82.2687 9.48812 83.065C9.83262 83.1862 10.193 83.3632 10.5456 83.2675C10.8975 83.1718 11.0611 82.7938 10.9325 82.2642Z" fill="#FFEA7C"/>
<path d="M4.72641 82.5984C4.7294 82.6151 4.45816 82.6881 4.0051 82.6836C3.56192 82.6773 2.89923 82.5661 2.35167 82.1088C2.08193 81.8836 1.87798 81.6031 1.76972 81.3154C1.65997 81.0284 1.64024 80.7467 1.66595 80.5185C1.69347 80.2894 1.76284 80.1136 1.82564 80.0032C1.88844 79.892 1.93958 79.8423 1.94646 79.8471C1.97307 79.8597 1.79993 80.0932 1.7757 80.5277C1.76524 80.7419 1.79514 81.0014 1.9031 81.2625C2.00926 81.5233 2.20005 81.7793 2.45125 81.9892C2.96053 82.415 3.57926 82.5394 4.01049 82.5735C4.44859 82.6061 4.72402 82.5729 4.72641 82.5984Z" fill="white"/>
<path d="M6.18069 82.4879C6.17949 82.5309 6.04163 82.562 5.87297 82.5576C5.70431 82.5531 5.56824 82.5148 5.56944 82.4717C5.57063 82.4287 5.70819 82.3976 5.87716 82.402C6.04612 82.4065 6.18188 82.4448 6.18069 82.4879Z" fill="white"/>
<path d="M3.31247 73.4384C3.05888 73.2766 2.73202 73.2105 2.40217 73.2404C2.03524 73.2021 1.64707 73.3762 1.42219 73.6755C1.14886 74.0394 1.1046 74.5454 1.25113 74.9764C1.39767 75.4073 1.71645 75.7652 2.09325 76.0206C2.52418 76.3131 3.10074 76.4788 3.56427 76.2422C4.00297 76.0182 4.21559 75.4871 4.19915 74.9949C4.17881 74.3741 3.8361 73.7727 3.31247 73.4384Z" fill="#FFEA7C"/>
<path d="M2.2975 75.7804C2.28943 75.7974 2.15844 75.7615 1.9823 75.6341C1.80736 75.5091 1.59384 75.2804 1.46944 74.9679C1.34474 74.6551 1.34264 74.3422 1.38361 74.1311C1.42398 73.9176 1.49426 73.8013 1.5119 73.8081C1.55766 73.815 1.38241 74.3327 1.61418 74.9098C1.84265 75.4888 2.32591 75.7442 2.2975 75.7804Z" fill="white"/>
<path d="M82.1238 55.0458C84.0551 51.8397 87.3709 50.3905 91.1078 50.1821C92.1518 50.1237 93.2376 50.2179 94.1593 50.712C95.081 51.2057 95.8046 52.1659 95.7837 53.2114C95.7616 54.3071 94.9359 55.2602 93.9532 55.7449C90.9729 57.2148 87.2594 55.0523 84.1247 56.1552C83.6475 56.3233 83.1484 56.5685 82.6603 56.4357C82.172 56.303 81.9456 55.7796 82.1238 55.0458Z" fill="#FFEA7C"/>
<path d="M90.7199 55.509C90.7223 55.4818 91.103 55.5353 91.7125 55.4961C92.3118 55.4542 93.1772 55.2844 93.8901 54.6887C94.2418 54.395 94.5086 54.0356 94.656 53.6692C94.8058 53.3029 94.8453 52.939 94.828 52.6396C94.7879 52.0319 94.5397 51.7114 94.5702 51.6988C94.5765 51.6943 94.6437 51.7655 94.7269 51.9201C94.8103 52.0738 94.9024 52.316 94.9374 52.6306C94.9703 52.9437 94.9407 53.3298 94.7891 53.7225C94.6396 54.1157 94.3597 54.4994 93.9894 54.8083C93.2382 55.4354 92.3291 55.5921 91.7176 55.6062C91.406 55.613 91.1551 55.5909 90.9834 55.567C90.8117 55.5428 90.7187 55.5185 90.7199 55.509Z" fill="white"/>
<path d="M88.7055 55.3553C88.7043 55.3123 88.893 55.2725 89.1269 55.2662C89.3607 55.2599 89.5509 55.2898 89.5521 55.3329C89.5533 55.376 89.3646 55.4157 89.1308 55.422C88.8972 55.428 88.7067 55.3981 88.7055 55.3553Z" fill="white"/>
<path d="M92.4969 72.8241C92.8312 73.0723 93.0783 73.4628 93.2018 73.9048C93.432 74.3609 93.3982 74.9491 93.1216 75.3878C92.7852 75.921 92.1518 76.2278 91.522 76.2505C90.8919 76.2733 90.2714 76.037 89.7549 75.6755C89.1643 75.2619 88.6655 74.5974 88.743 73.8803C88.8165 73.2021 89.3991 72.665 90.0444 72.4434C90.8584 72.1641 91.8058 72.3112 92.4969 72.8241Z" fill="#FFEA7C"/>
<path d="M89.9657 75.2926C89.9819 75.2737 90.1218 75.3871 90.3745 75.5139C90.6251 75.6413 91.0007 75.7717 91.4284 75.7782C91.856 75.7848 92.2355 75.6661 92.49 75.5462C92.7469 75.4269 92.8901 75.318 92.9054 75.3374C92.9176 75.3506 92.7974 75.4927 92.5408 75.644C92.2878 75.795 91.8859 75.9409 91.426 75.934C90.966 75.9272 90.5689 75.7687 90.3207 75.6102C90.0689 75.4508 89.9529 75.3054 89.9657 75.2926Z" fill="white"/>
<path d="M62.4887 66.6663C58.2518 66.1947 54.4718 63.9157 50.5564 62.2296C46.6409 60.5436 41.3272 59.1366 37.5125 61.04C35.389 64.0431 34.0995 66.4887 30.749 70.0515C30.1544 70.8016 29.2738 70.9002 28.5767 71.5644L28.9257 72.2205C29.6628 72.496 30.3264 73.0408 30.6066 73.7762C30.9807 74.7577 30.586 75.9311 29.7968 76.6243C29.0076 77.3175 27.8972 77.569 26.8515 77.4697C25.9971 77.3887 25.1514 77.0804 24.5048 76.516C24.2593 76.3016 24.0458 76.0483 23.875 75.7699C21.6842 76.9918 18.7939 77.377 16.4009 77.967L16.6282 78.5732C24.4106 83.2132 34.767 82.7584 41.6983 88.5937C45.0817 91.4421 47.6443 95.7595 51.9667 96.6967C56.014 91.2083 60.9758 86.3963 66.5853 82.5185C68.7307 81.0356 71.0023 79.6602 72.7131 77.6919C76.27 73.5994 76.7808 67.7611 77.0831 62.3475L76.8558 61.7413C72.4975 64.3903 67.5501 67.2297 62.4887 66.6663ZM55.0134 88.0171C54.0896 88.8287 52.79 89.1227 51.5657 89.0067C50.5656 88.9119 49.5758 88.5509 48.8189 87.8903C48.062 87.2297 47.5599 86.2545 47.5695 85.2503C47.5785 84.3036 48.0542 83.3726 48.8159 82.8107C49.2453 82.494 49.9981 82.2401 50.7358 82.1274C51.4559 82.0173 52.1928 82.1265 52.8671 82.4022L53.9936 82.863C54.8567 83.1851 55.633 83.823 55.9611 84.6836C56.3992 85.8323 55.9371 87.2055 55.0134 88.0171ZM59.5622 76.8169C59.0649 77.2538 58.3648 77.4123 57.7054 77.3498C57.1668 77.2987 56.6336 77.1043 56.226 76.7487C55.8184 76.3928 55.5481 75.8677 55.5532 75.3267C55.558 74.8169 55.8142 74.3154 56.2245 74.0127C56.4557 73.842 56.8612 73.7053 57.2583 73.6446C57.6462 73.5854 58.043 73.644 58.4061 73.7926L59.0129 74.0408C59.4776 74.2143 59.8959 74.5579 60.0724 75.0214C60.3086 75.6401 60.0598 76.3797 59.5622 76.8169Z" fill="#FFCF54"/>
<g opacity="0.3">
<path d="M62.4887 66.6663C58.2518 66.1947 54.4718 63.9157 50.5564 62.2296C46.6409 60.5436 41.3272 59.1366 37.5125 61.04C35.389 64.0431 34.0995 66.4887 30.749 70.0515C30.1544 70.8016 29.2738 70.9002 28.5767 71.5644L28.9257 72.2205C29.6628 72.496 30.3264 73.0408 30.6066 73.7762C30.9807 74.7577 30.586 75.9311 29.7968 76.6243C29.0076 77.3175 27.8972 77.569 26.8515 77.4697C25.9971 77.3887 25.1514 77.0804 24.5048 76.516C24.2593 76.3016 24.0458 76.0483 23.875 75.7699C21.7099 76.9775 18.7652 77.3764 16.4009 77.967L16.6282 78.5732C24.4106 83.2132 34.767 82.7584 41.6983 88.5937C45.0817 91.4421 47.6443 95.7595 51.9667 96.6967C56.014 91.2083 60.9758 86.3963 66.5853 82.5185C68.7307 81.0356 71.0023 79.6602 72.7131 77.6919C76.27 73.5994 76.7808 67.7611 77.0831 62.3475L76.8558 61.7413C72.4903 64.3986 67.5617 67.2309 62.4887 66.6663ZM55.0134 88.0171C54.0896 88.8287 52.79 89.1227 51.5657 89.0067C50.5656 88.9119 49.5758 88.5509 48.8189 87.8903C48.062 87.2297 47.5599 86.2545 47.5695 85.2503C47.5785 84.3036 48.0542 83.3726 48.8159 82.8107C49.2453 82.494 49.9981 82.2401 50.7358 82.1274C51.4559 82.0173 52.1928 82.1265 52.8671 82.4022L53.9936 82.863C54.8567 83.1851 55.633 83.823 55.9611 84.6836C56.3992 85.8323 55.9371 87.2055 55.0134 88.0171ZM59.5622 76.8169C59.0649 77.2538 58.3648 77.4123 57.7054 77.3498C57.1668 77.2987 56.6336 77.1043 56.226 76.7487C55.8184 76.3928 55.5481 75.8677 55.5532 75.3267C55.558 74.8169 55.8142 74.3154 56.2245 74.0127C56.4557 73.842 56.8612 73.7053 57.2583 73.6446C57.6462 73.5854 58.043 73.644 58.4061 73.7926L59.0129 74.0408C59.4776 74.2143 59.8959 74.5579 60.0724 75.0214C60.3086 75.6401 60.0598 76.3797 59.5622 76.8169Z" fill="black"/>
</g>
<path d="M62.2614 66.0604C58.0245 65.5888 54.2445 63.3097 50.3291 61.6237C46.4137 59.9377 41.0999 58.5306 37.2852 60.4341C35.1617 63.4371 33.8722 65.8827 30.5217 69.4456C29.9272 70.1956 29.2737 70.9004 28.5767 71.5646L28.6984 71.6143C29.4355 71.8897 30.0991 72.4346 30.3793 73.1699C30.7534 74.1514 30.3587 75.3246 29.5695 76.018C28.7803 76.7112 27.6699 76.9627 26.6242 76.8635C25.7698 76.7824 24.9241 76.4741 24.2775 75.9098C24.032 75.6954 23.8185 75.4421 23.6477 75.1637C21.3669 76.4358 18.8941 77.3811 16.4009 77.9672C24.1833 82.6073 34.5397 82.1524 41.471 87.9877C44.8544 90.8362 47.417 95.1535 51.7394 96.0907C55.7867 90.6026 60.7485 85.7903 66.358 81.9126C68.5034 80.4296 70.775 79.0543 72.4858 77.0859C76.0427 72.9935 76.5535 67.1552 76.8558 61.7412C72.4508 64.4464 67.399 66.6321 62.2614 66.0604ZM54.7861 87.4112C53.8623 88.2228 52.5624 88.5167 51.3384 88.4007C50.3384 88.3059 49.3485 87.945 48.5916 87.2844C47.8347 86.6238 47.3326 85.6486 47.3422 84.6444C47.3512 83.6976 47.827 82.7667 48.5886 82.2047C49.0181 81.8881 49.7708 81.6342 50.5085 81.5214C51.2286 81.4114 51.9655 81.5205 52.6398 81.7962L53.7663 82.2571C54.6294 82.5792 55.4057 83.217 55.7338 84.0777C56.1719 85.2263 55.7099 86.5996 54.7861 87.4112ZM59.3349 76.2106C58.8373 76.6478 58.1372 76.806 57.4781 76.7435C56.9395 76.6924 56.4063 76.498 55.9987 76.1424C55.5911 75.7866 55.3208 75.2615 55.3259 74.7205C55.3307 74.2106 55.5869 73.7091 55.9972 73.4065C56.2284 73.2357 56.6339 73.099 57.031 73.0383C57.4189 72.9791 57.8158 73.0377 58.1788 73.1864L58.7856 73.4346C59.2503 73.608 59.6686 73.9516 59.8451 74.4151C60.0813 75.0339 59.8325 75.7737 59.3349 76.2106Z" fill="#FFCF54"/>
<path d="M43.6854 87.7574C43.6813 87.761 43.6191 87.7012 43.5048 87.5846C43.387 87.4716 43.2318 87.2867 43.0027 87.078C42.5574 86.6483 41.8708 86.0672 40.9411 85.4679C40.011 84.8707 38.8364 84.261 37.4715 83.7317C36.1109 83.1907 34.5699 82.7152 32.9425 82.2511C29.6909 81.3234 26.748 80.4843 24.6005 79.8716C23.5461 79.5632 22.6881 79.3123 22.0772 79.1338C21.791 79.0468 21.5631 78.9774 21.3932 78.9257C21.2374 78.8763 21.1561 78.8482 21.1576 78.8428C21.1591 78.8374 21.2431 78.856 21.4016 78.8955C21.5736 78.9403 21.8038 79.0001 22.0933 79.0755C22.7072 79.2427 23.57 79.4774 24.6301 79.7657C26.7809 80.3671 29.7283 81.191 32.9849 82.1013C34.6138 82.5657 36.1593 83.0471 37.5242 83.5983C38.8932 84.1378 40.0715 84.7622 41.0006 85.3755C41.9297 85.991 42.6104 86.5894 43.0446 87.0346C43.268 87.2512 43.4169 87.4431 43.5275 87.5634C43.6352 87.6872 43.6896 87.7539 43.6854 87.7574Z" fill="white"/>
<path d="M46.2426 90.7235C46.2061 90.7498 45.9749 90.4785 45.6475 90.1942C45.3218 89.9074 45.0228 89.7145 45.0437 89.6747C45.0613 89.6376 45.4079 89.7764 45.7497 90.0769C46.0933 90.376 46.2767 90.7013 46.2426 90.7235Z" fill="white"/>
<path d="M46.8287 82.7751C46.8766 82.7945 46.4005 83.6429 46.3102 84.8071C46.2043 85.9704 46.5315 86.8867 46.4809 86.8977C46.4642 86.904 46.3598 86.6857 46.2665 86.3074C46.1726 85.9303 46.1056 85.3891 46.155 84.7939C46.2061 84.1994 46.3628 83.677 46.5186 83.3208C46.6738 82.9638 46.8135 82.7661 46.8287 82.7751Z" fill="white"/>
<path d="M54.1091 74.692C54.15 74.7138 53.9607 75.0846 53.9227 75.5816C53.8773 76.078 54.002 76.4752 53.9577 76.4898C53.9233 76.5099 53.7197 76.1062 53.7675 75.5685C53.8103 75.0305 54.0786 74.6662 54.1091 74.692Z" fill="white"/>
<path d="M70.8545 56.8582C71.1293 55.4156 69.7375 49.7424 68.0276 48.911C64.0236 46.9642 56.2965 51.0941 48.7731 52.1276C39.9359 53.3417 31.9669 56.7616 28.1358 59.0637C26.4818 60.0577 21.4216 60.3017 20.3965 61.4534C20.3965 61.4534 20.4054 64.3978 21.4778 67.3144C21.4778 67.3144 22.3983 71.7517 27.0912 72.8734C33.7956 74.476 41.9135 73.8235 47.6218 72.5143C54.1832 71.0092 63.139 67.0551 66.4011 64.4211C69.6634 61.7877 70.4744 58.8535 70.8545 56.8582Z" fill="#743C35"/>
<path d="M69.1873 50.8776C67.4247 45.5333 58.1569 44.8512 47.4208 46.3261C38.5837 47.5402 30.6146 50.9601 26.7835 53.2622C22.9524 55.5643 20.7822 58.2787 20.3968 61.4537C20.3968 61.4537 21.046 65.9502 25.739 67.0719C32.4433 68.6745 40.8131 68.2777 46.5213 66.9685C53.0827 65.4633 61.7868 61.2537 65.0488 58.6199C68.3108 55.9859 69.6643 52.3232 69.1873 50.8776Z" fill="#A85F4C"/>
<path d="M46.962 48.121C47.1579 48.2101 45.6845 51.872 43.6713 56.2994C41.6575 60.7283 39.8671 64.2451 39.6713 64.156C39.4757 64.0669 40.9488 60.4059 42.9623 55.977C44.9755 51.5496 46.7662 48.0322 46.962 48.121Z" fill="#774037"/>
<path d="M54.9446 46.8452C55.1398 46.9355 53.7125 50.4314 51.7576 54.6524C49.8018 58.875 48.0587 62.2234 47.8637 62.1331C47.6687 62.0428 49.0955 58.5475 51.0512 54.325C53.0061 50.1042 54.7496 46.7549 54.9446 46.8452Z" fill="#774037"/>
<path d="M62.288 47.6882C62.4842 47.7648 61.5771 50.5426 60.0496 53.7978C58.5265 57.0565 56.9736 59.5311 56.7894 59.4294C56.5968 59.3245 57.8334 56.7015 59.3444 53.4676C60.8606 50.237 62.084 47.6075 62.288 47.6882Z" fill="#774037"/>
<path d="M37.3151 50.6259C37.5128 50.6962 36.502 54.0258 34.8142 57.9637C33.1314 61.9054 31.4215 64.9354 31.2343 64.8406C31.0372 64.7425 32.426 61.5753 34.0982 57.6574C35.7762 53.7435 37.1081 50.5512 37.3151 50.6259Z" fill="#774037"/>
<path d="M29.6499 54.2671C29.8419 54.373 29.0444 56.1709 28.0563 58.3725C27.0632 60.5729 26.2465 62.3615 26.0398 62.2879C25.8407 62.2185 26.3383 60.2864 27.3461 58.0528C28.3497 55.818 29.466 54.164 29.6499 54.2671Z" fill="#774037"/>
<path d="M33.635 66.9678C33.6347 66.9732 33.5794 66.9747 33.4747 66.9729C33.3524 66.9687 33.2014 66.9633 33.0172 66.9567C32.6204 66.9388 32.0459 66.9074 31.3371 66.8446C30.629 66.7815 29.7851 66.6846 28.861 66.4947C27.9382 66.306 26.9343 66.0115 25.9477 65.5408C24.9635 65.0605 24.1223 64.4199 23.4737 63.7294C22.8289 63.0347 22.3666 62.3009 22.1043 61.6331C21.8382 60.9671 21.7347 60.3888 21.7177 59.9898C21.695 59.7913 21.7156 59.6352 21.7135 59.5305C21.7171 59.4255 21.7216 59.3708 21.7269 59.3711C21.7431 59.3711 21.7386 59.5921 21.7778 59.9844C21.8128 60.3771 21.9318 60.942 22.2057 61.5903C22.4761 62.2402 22.939 62.9534 23.5778 63.6304C24.2204 64.303 25.0494 64.9286 26.0153 65.3999C26.9869 65.8634 27.977 66.1589 28.8906 66.3536C29.8051 66.5494 30.6434 66.6574 31.3479 66.7343C32.0531 66.8108 32.6254 66.859 33.0211 66.8954C33.2044 66.9137 33.3548 66.9286 33.4765 66.9406C33.5809 66.9538 33.6353 66.9624 33.635 66.9678Z" fill="white"/>
<path d="M38.3247 66.1726C38.3334 66.2147 37.7517 66.3691 37.0259 66.5171C36.2998 66.6654 35.7044 66.7512 35.696 66.7091C35.6874 66.6669 36.2687 66.5126 36.9948 66.3646C37.7206 66.2165 38.316 66.1304 38.3247 66.1726Z" fill="white"/>
<path d="M26.9085 71.4764C26.9052 71.4865 26.8083 71.4617 26.6349 71.4076C26.4606 71.3564 26.2156 71.2595 25.9217 71.1211C25.3337 70.846 24.564 70.3555 23.8642 69.6456C23.1668 68.9326 22.6908 68.1539 22.4264 67.5609C22.293 67.2646 22.2009 67.0178 22.1531 66.8426C22.1022 66.6683 22.0792 66.5711 22.0894 66.5678C22.1163 66.5588 22.2377 66.9404 22.5257 67.5131C22.8116 68.0854 23.2918 68.8375 23.9752 69.5364C24.6609 70.2323 25.404 70.7263 25.971 71.0227C26.5383 71.3211 26.9178 71.4494 26.9085 71.4764Z" fill="white"/>
<path d="M28.0901 27.1727C28.0901 27.1727 22.4988 25.9541 18.7009 27.946C16.2846 29.2134 15.0331 32.4021 14.4787 35.735C13.5776 41.1541 16.8698 49.4006 30.9678 55.1076C46.0719 61.2223 53.2631 57.1522 55.7508 55.5658C57.9231 54.1803 61.2988 50.2652 61.096 43.7845C61.0613 42.6756 59.1172 42.7725 58.3965 41.5419C54.447 34.7978 39.9674 26.5217 28.0901 27.1727Z" fill="#F74545"/>
<path opacity="0.3" d="M28.0901 27.1727C28.0901 27.1727 22.4988 25.9541 18.7009 27.946C16.2846 29.2134 15.0331 32.4021 14.4787 35.735C13.5776 41.1541 16.8698 49.4006 30.9678 55.1076C46.0719 61.2223 53.2631 57.1522 55.7508 55.5658C57.9231 54.1803 61.2988 50.2652 61.096 43.7845C61.0613 42.6756 59.1172 42.7725 58.3965 41.5419C54.447 34.7978 39.9674 26.5217 28.0901 27.1727Z" fill="black"/>
<path d="M29.1033 24.2058C29.1033 24.2058 17.2664 25.0814 15.691 32.6933C14.5776 38.0729 17.883 46.4337 31.981 52.141C47.085 58.2556 55.9153 52.7726 57.1788 51.7899C58.4422 50.8073 63.7707 46.0222 59.4097 38.5753C55.4601 31.8312 40.9805 23.555 29.1033 24.2058Z" fill="#F74545"/>
<path opacity="0.1" d="M29.1033 24.2058C29.1033 24.2058 17.2664 25.0814 15.691 32.6933C14.5776 38.0729 17.883 46.4337 31.981 52.141C47.085 58.2556 55.9153 52.7726 57.1788 51.7899C58.4422 50.8073 63.7707 46.0222 59.4097 38.5753C55.4601 31.8312 40.9805 23.555 29.1033 24.2058Z" fill="white"/>
<g opacity="0.2">
<path d="M55.7107 39.1196C54.6455 37.8382 49.3267 38.9109 47.3201 38.5424C46.8428 38.4548 46.5282 37.7769 46.928 37.5017C50.1497 35.2855 50.3931 32.816 48.7229 31.5944C46.914 30.2711 44.0395 28.7097 41.4961 28.3374C40.017 28.1209 37.7972 27.8527 36.6632 28.8267C35.9072 29.4759 35.8181 32.5956 35.9084 33.6246C35.6414 32.7361 34.9141 29.8985 34.4335 29.1072C33.6177 27.7633 32.31 26.6347 30.7549 26.4026C29.1218 26.1592 27.5067 26.9199 26.131 27.8338C23.7937 29.3865 21.7945 31.4463 20.3184 33.8336C19.8908 34.525 19.5909 35.296 19.508 36.1046C19.1824 39.285 22.1423 40.4593 24.6367 40.3448C26.5545 40.2566 29.9095 38.8525 31.8288 38.898C31.9858 38.9016 32.153 38.9135 32.2783 39.0077C32.504 39.1776 32.4804 39.5457 32.3046 39.767C32.129 39.9883 30.3721 40.8711 30.109 40.9737C28.9995 41.4049 27.8625 41.8672 27.111 42.8436C26.7593 43.3009 26.5336 43.8553 26.5389 44.4322C26.553 45.9531 27.9842 46.7468 29.2543 47.338C31.3087 48.2944 33.3719 49.2331 35.4428 50.1536C37.9147 51.2523 40.4644 52.3414 43.1654 52.4876C44.1185 52.5394 45.1983 52.4251 45.6281 51.3584C45.7327 51.0982 45.7728 50.8133 45.756 50.5336C45.6992 49.5731 45.1194 48.8066 44.4926 48.1335C44.0895 47.7005 43.683 47.0339 43.4914 46.4741C43.2997 45.9143 43.2557 44.2581 43.8018 44.0309C44.2988 43.8242 45.1998 43.9585 45.8864 44.8706C46.6634 45.9029 47.4283 47.2818 48.1239 48.3703C48.5142 48.981 48.8608 49.658 49.4639 50.06C50.5309 50.7705 51.9867 50.3593 53.0866 49.7011C54.8582 48.6413 56.2855 46.952 56.8447 44.9648C57.4049 42.9773 57.0304 40.7072 55.7107 39.1196Z" fill="white"/>
</g>
<path d="M31.2534 43.8431C31.022 43.7785 30.7723 43.7594 30.5429 43.8308C30.3135 43.9023 30.1084 44.0737 30.0345 44.3024C29.9607 44.5309 30.042 44.8111 30.2477 44.9352C30.4499 45.0572 30.7086 45.0118 30.9346 44.9442C31.1751 44.8724 31.4089 44.7797 31.6335 44.6676C31.7352 44.6167 31.8168 44.5815 31.9218 44.4926C32.0546 44.3748 32.0713 44.2133 31.9161 44.1233C31.7011 44.016 31.4849 43.9077 31.2534 43.8431Z" fill="white"/>
<path d="M50.1018 47.1699C50.0073 47.3906 49.955 47.6358 49.9956 47.8726C50.0363 48.1095 50.1789 48.3356 50.3958 48.4387C50.6126 48.5422 50.9011 48.4985 51.0513 48.3113C51.199 48.1271 51.1882 47.8649 51.1512 47.6316C51.1117 47.384 51.051 47.1397 50.9693 46.9022C50.9325 46.7949 50.9083 46.709 50.8342 46.5933C50.7349 46.4462 50.5773 46.4082 50.4672 46.55C50.3324 46.7488 50.1966 46.9492 50.1018 47.1699Z" fill="white"/>
<path d="M32.6868 46.4604C32.5223 46.6177 32.3835 46.8115 32.3243 47.0313C32.2651 47.2508 32.2947 47.4981 32.4332 47.6653C32.5719 47.8324 32.827 47.8979 33.0244 47.7894C33.2185 47.6826 33.3121 47.4514 33.3728 47.2361C33.4371 47.0074 33.4822 46.7738 33.5079 46.539C33.5196 46.4329 33.5331 46.3497 33.5169 46.2229C33.4924 46.06 33.3773 45.9706 33.231 46.054C33.0417 46.1781 32.8512 46.3031 32.6868 46.4604Z" fill="white"/>
<path d="M39.2897 48.9415C39.3002 49.1688 39.3549 49.4009 39.4817 49.5899C39.6082 49.7789 39.8139 49.9188 40.0311 49.9242C40.2482 49.9296 40.4653 49.7804 40.5134 49.5603C40.5607 49.344 40.4479 49.1212 40.3253 48.934C40.1952 48.7352 40.049 48.5477 39.8887 48.3742C39.816 48.2956 39.7625 48.231 39.6563 48.1598C39.5173 48.071 39.3743 48.0994 39.3411 48.2645C39.3103 48.4885 39.2792 48.7139 39.2897 48.9415Z" fill="white"/>
<path d="M41.6621 48.0652C41.8361 48.2117 42.0437 48.3289 42.2686 48.3642C42.4932 48.3995 42.7357 48.3436 42.887 48.1878C43.0383 48.032 43.076 47.7712 42.9471 47.5867C42.8203 47.4052 42.5802 47.337 42.3595 47.2999C42.125 47.2604 41.8882 47.2407 41.6519 47.2404C41.5449 47.2404 41.4611 47.2356 41.3367 47.2652C41.1773 47.3071 41.1008 47.4312 41.1998 47.5679C41.3433 47.7425 41.4878 47.9183 41.6621 48.0652Z" fill="white"/>
<path d="M52.5851 45.9457C52.5956 46.1732 52.6503 46.405 52.7771 46.594C52.9036 46.783 53.1093 46.923 53.3264 46.9283C53.5435 46.9337 53.7607 46.7845 53.8088 46.5644C53.856 46.3482 53.7433 46.1254 53.6207 45.9382C53.4906 45.7393 53.3444 45.5518 53.1841 45.3784C53.1114 45.2997 53.0579 45.2351 52.9517 45.164C52.8127 45.0751 52.6697 45.1036 52.6365 45.2686C52.6054 45.4929 52.5746 45.7184 52.5851 45.9457Z" fill="white"/>
<path d="M54.1392 44.1345C54.3133 44.281 54.5208 44.3983 54.7457 44.4336C54.9703 44.4688 55.2128 44.4129 55.3641 44.2571C55.5155 44.1013 55.5531 43.8405 55.4243 43.656C55.2975 43.4745 55.0573 43.4063 54.8366 43.3692C54.6022 43.3298 54.3653 43.31 54.1291 43.3097C54.022 43.3097 53.9383 43.305 53.8139 43.3346C53.6545 43.3764 53.5779 43.5005 53.6766 43.6372C53.8205 43.8118 53.9652 43.988 54.1392 44.1345Z" fill="white"/>
<path d="M54.8567 41.7074C55.0561 41.7648 55.2723 41.7851 55.4727 41.7307C55.6728 41.6766 55.8537 41.5399 55.9219 41.3539C55.9897 41.1679 55.9243 40.9367 55.7481 40.8312C55.575 40.7274 55.3498 40.7597 55.1527 40.8108C54.9431 40.8653 54.7385 40.9367 54.5421 41.0243C54.4529 41.0641 54.3815 41.0913 54.2891 41.1625C54.1718 41.2567 54.1545 41.3886 54.2876 41.4651C54.4715 41.5575 54.6572 41.6503 54.8567 41.7074Z" fill="white"/>
<path d="M47.9911 33.8311C48.1751 33.785 48.3551 33.7019 48.4885 33.5676C48.6218 33.433 48.702 33.2422 48.6706 33.0643C48.6392 32.8864 48.4816 32.7339 48.2941 32.7309C48.1099 32.7282 47.9469 32.8568 47.8144 32.9878C47.6735 33.1268 47.5447 33.2769 47.4298 33.4363C47.3778 33.5084 47.3338 33.5628 47.2932 33.6612C47.2438 33.7892 47.2905 33.9013 47.4304 33.901C47.6182 33.8891 47.8072 33.8771 47.9911 33.8311Z" fill="white"/>
<path d="M30.7992 28.5293C30.8105 28.34 30.7857 28.1432 30.6975 27.9757C30.6093 27.8082 30.4514 27.6743 30.2722 27.6507C30.0931 27.627 29.9002 27.7314 29.841 27.9093C29.783 28.0843 29.8566 28.2784 29.9415 28.444C30.0318 28.6202 30.1362 28.7882 30.2534 28.9458C30.3063 29.0173 30.3452 29.0756 30.4269 29.1438C30.5342 29.2296 30.655 29.2186 30.6969 29.0849C30.742 28.9025 30.7878 28.7186 30.7992 28.5293Z" fill="white"/>
<path d="M24.1298 31.6255C24.0413 31.458 23.9178 31.3025 23.7557 31.205C23.5933 31.1076 23.3888 31.075 23.2234 31.1476C23.0581 31.2206 22.9474 31.4099 22.9893 31.5926C23.0305 31.7723 23.1941 31.9 23.3526 31.9975C23.521 32.1013 23.6977 32.1907 23.8795 32.2646C23.9621 32.2981 24.0252 32.328 24.1304 32.3438C24.2665 32.3615 24.3643 32.2894 24.3308 32.1533C24.2749 31.9739 24.2184 31.793 24.1298 31.6255Z" fill="white"/>
<path d="M27.3503 29.254C27.286 29.0495 27.1798 28.8515 27.0192 28.7101C26.8583 28.5686 26.6374 28.4906 26.4382 28.5381C26.2393 28.5857 26.0775 28.7738 26.0868 28.9858C26.0961 29.1942 26.2525 29.3698 26.4092 29.5106C26.5757 29.6602 26.754 29.7959 26.9418 29.9152C27.0267 29.9694 27.0913 30.0154 27.2049 30.0546C27.353 30.1018 27.4765 30.0417 27.4666 29.8832C27.4409 29.6715 27.4149 29.4586 27.3503 29.254Z" fill="white"/>
<path d="M21.6714 35.1947C21.4641 35.1391 21.2404 35.1221 21.0344 35.1819C20.8286 35.2417 20.6441 35.3861 20.5771 35.5796C20.5105 35.7731 20.5822 36.0105 20.7661 36.1164C20.9468 36.2205 21.1788 36.1831 21.3819 36.1263C21.5975 36.0661 21.8077 35.9884 22.009 35.8942C22.1002 35.8514 22.1738 35.8218 22.268 35.7471C22.3873 35.6478 22.4028 35.5111 22.2641 35.4343C22.0721 35.3428 21.8783 35.2503 21.6714 35.1947Z" fill="white"/>
<path d="M23.4815 38.0246C23.2721 38.0719 23.0661 38.1613 22.9118 38.3099C22.7575 38.4585 22.6615 38.6724 22.6926 38.8748C22.7234 39.077 22.8977 39.2537 23.1098 39.2618C23.3182 39.2696 23.506 39.1284 23.6594 38.9837C23.8224 38.8303 23.9719 38.6634 24.1065 38.4864C24.1675 38.4062 24.2186 38.3458 24.2671 38.2355C24.3266 38.0919 24.2763 37.9639 24.1178 37.9603C23.9049 37.9687 23.6905 37.9774 23.4815 38.0246Z" fill="white"/>
<path d="M46.1002 32.1765C46.2821 32.0545 46.4456 31.8942 46.5383 31.6959C46.6307 31.4977 46.6436 31.2587 46.5401 31.0775C46.4364 30.8963 46.2055 30.7916 46.0007 30.8619C45.7991 30.9307 45.672 31.1343 45.579 31.3281C45.4803 31.5342 45.3987 31.7477 45.3356 31.966C45.3069 32.0647 45.2802 32.1412 45.2746 32.2638C45.2707 32.4223 45.3652 32.5261 45.5174 32.4711C45.7174 32.3852 45.9184 32.2985 46.1002 32.1765Z" fill="white"/>
<path d="M40.3418 30.0928C40.4151 29.8865 40.451 29.6601 40.407 29.446C40.363 29.2319 40.2309 29.0321 40.0398 28.9484C39.8484 28.8647 39.6008 28.9185 39.4781 29.097C39.3576 29.2726 39.3768 29.5118 39.4177 29.7226C39.4611 29.9469 39.5233 30.167 39.6026 30.3799C39.6384 30.4762 39.6627 30.5534 39.7311 30.6553C39.8227 30.7848 39.9602 30.8118 40.0499 30.6769C40.1585 30.4885 40.2682 30.2992 40.3418 30.0928Z" fill="white"/>
<path d="M43.7114 30.8718C43.8299 30.6876 43.916 30.4753 43.922 30.2567C43.9279 30.0381 43.8445 29.8138 43.6773 29.6885C43.5102 29.5635 43.2566 29.5596 43.0966 29.7055C42.9393 29.8491 42.9037 30.0862 42.8956 30.3012C42.887 30.5297 42.8971 30.7579 42.9261 30.9833C42.9393 31.0853 42.9453 31.1661 42.9889 31.2809C43.0484 31.428 43.1764 31.4855 43.2943 31.3742C43.4432 31.2154 43.593 31.056 43.7114 30.8718Z" fill="white"/>
<path d="M35.9634 47.4916C35.799 47.6489 35.6602 47.8427 35.601 48.0625C35.5418 48.282 35.5714 48.5293 35.7099 48.6965C35.8486 48.8636 36.1037 48.9294 36.3011 48.8209C36.4951 48.7141 36.5888 48.4829 36.6495 48.2676C36.7138 48.0388 36.7589 47.8053 36.7846 47.5705C36.7963 47.4641 36.8097 47.3812 36.7936 47.2544C36.7691 47.0915 36.6539 47.002 36.5077 47.0858C36.3184 47.2093 36.1282 47.334 35.9634 47.4916Z" fill="white"/>
<g opacity="0.3">
<path d="M53.3112 41.3719C53.1276 41.1527 52.8677 41.0131 52.609 40.8914C50.4143 39.8597 47.9008 39.7661 45.5943 39.0169C45.4412 38.9673 45.2797 38.9081 45.1822 38.7801C44.9944 38.5337 45.1328 38.1823 45.2755 37.9072C45.6744 37.1383 46.0736 36.3692 46.4726 35.6003C46.6613 35.237 46.8554 34.8428 46.7985 34.4376C46.7304 33.952 46.3236 33.5916 45.9256 33.3054C44.2142 32.0748 42.1382 31.3577 40.032 31.2695C39.2078 31.2351 38.3047 31.326 37.7096 31.8969C37.1237 32.4588 36.9877 33.356 37.0944 34.1607C37.1895 34.8769 37.4102 35.7196 36.9042 36.2352C36.4709 36.6766 35.5137 36.8719 35.3905 35.833C34.8698 34.2238 34.1333 32.6849 33.2065 31.2701C32.8662 30.7507 32.4834 30.2321 31.943 29.9262C31.2857 29.5539 30.4828 29.547 29.7355 29.6561C26.4726 30.1331 23.654 32.8267 23.0293 36.0644C22.9791 36.3246 22.9435 36.6027 23.0452 36.8473C23.1738 37.156 23.4908 37.3405 23.8009 37.4655C24.9567 37.9302 26.2552 37.8635 27.4866 37.6742C28.7178 37.4849 29.9415 37.1802 31.1873 37.1919C32.4329 37.2035 33.746 37.5842 34.5516 38.5346C34.6482 38.6485 34.7382 38.7732 34.7768 38.9171C34.9392 39.522 34.2011 39.9323 33.6365 40.203C33.1449 40.4386 32.6868 40.7439 32.2801 41.1067C32.0187 41.3396 31.7615 41.6408 31.7842 41.9901C31.7986 42.2099 31.9239 42.4066 32.065 42.5756C32.6539 43.2814 33.4562 44.2213 34.2675 44.6528C36.1234 45.6403 37.5499 45.7664 39.872 46.0218C40.1606 46.0535 41.1367 46.0972 41.4184 46.0272C42.0153 45.8786 42.0482 44.7359 42.2013 44.1402C42.3544 43.5442 42.4623 42.8824 42.9232 42.4751C43.4836 41.9802 44.3795 42.0702 45.0147 42.4647C45.6499 42.8588 46.0928 43.4898 46.5494 44.0816C47.0061 44.6734 47.5258 45.2652 48.228 45.5218C49.3243 45.9226 50.5306 45.4025 51.5381 44.8131C52.4311 44.2906 53.3584 43.6019 53.5636 42.5879C53.6488 42.168 53.5863 41.7003 53.3112 41.3719Z" fill="white"/>
</g>
<path d="M17.9617 40.0662C17.953 40.0725 17.8615 39.9553 17.7033 39.737C17.622 39.629 17.5275 39.4935 17.4333 39.3264C17.3373 39.1604 17.2164 38.9771 17.1169 38.7567C17.0083 38.5405 16.8926 38.3021 16.7948 38.0348C16.6814 37.7731 16.5977 37.4806 16.502 37.1753C16.3348 36.5581 16.2063 35.8628 16.1626 35.1244C16.1279 34.3855 16.182 33.6806 16.2831 33.0488C16.3459 32.7348 16.3982 32.4351 16.4832 32.163C16.5523 31.8866 16.6423 31.6375 16.7272 31.4112C16.8029 31.1815 16.9036 30.9862 16.9814 30.8113C17.0571 30.6348 17.1369 30.4904 17.2063 30.3744C17.3408 30.1405 17.4192 30.0143 17.4285 30.0197C17.459 30.0358 17.1462 30.5466 16.8307 31.4488C16.7532 31.6749 16.6704 31.9225 16.6079 32.1965C16.5292 32.4662 16.4826 32.7626 16.4246 33.0724C16.3328 33.6959 16.284 34.3894 16.3178 35.1167C16.3612 35.8431 16.4832 36.5276 16.6402 37.1376C16.7308 37.4394 16.8085 37.7291 16.915 37.989C17.0062 38.2549 17.1148 38.4923 17.2155 38.7088C17.6252 39.5722 17.9904 40.0471 17.9617 40.0662Z" fill="white"/>
<path d="M19.6557 28.1618C19.6761 28.2028 19.3435 28.3939 19.0014 28.7091C18.656 29.0213 18.4353 29.3347 18.3965 29.3108C18.3603 29.2925 18.5313 28.9247 18.8962 28.594C19.2589 28.2611 19.6408 28.1242 19.6557 28.1618Z" fill="white"/>
<path d="M77.6249 22.3242C77.0612 15.6369 72.6673 2.81347 52.3548 0.373535C34.0181 -1.82925 27.2178 6.15801 24.1077 12.6007C22.2479 16.4533 24.2967 22.5234 27.5371 25.3162C32.0339 29.1919 38.1982 30.9527 43.7282 32.2747C52.3022 34.3247 58.6474 34.6357 66.5871 34.002C72.1461 33.5583 75.8504 29.7938 77.0983 27.2044C77.6417 26.0782 77.7299 23.5707 77.6249 22.3242Z" fill="#E49D67"/>
<path opacity="0.3" d="M42.4674 10.1474C42.4674 10.1474 41.4883 10.0532 40.7802 11.0099C40.3821 11.5476 40.6112 11.992 40.9683 12.1938C41.3182 12.3918 41.8717 12.1433 42.1361 11.7157C42.7099 10.7871 42.4674 10.1474 42.4674 10.1474Z" fill="black"/>
<path opacity="0.3" d="M32.9287 10.4863C32.9287 10.4863 33.7807 10.9777 34.8216 10.4002C35.4066 10.0757 35.3821 9.57632 35.141 9.24467C34.9045 8.91961 34.2977 8.91662 33.8799 9.19623C32.9729 9.80389 32.9287 10.4863 32.9287 10.4863Z" fill="black"/>
<path opacity="0.3" d="M45.2351 5.6444C45.2351 5.6444 44.5108 4.98052 43.3687 5.31694C42.727 5.50594 42.642 5.99817 42.8053 6.37378C42.9653 6.74191 43.5568 6.87678 44.0254 6.69496C45.0431 6.29991 45.2351 5.6444 45.2351 5.6444Z" fill="black"/>
<path opacity="0.3" d="M51.4822 10.7883C51.4822 10.7883 51.4615 9.8059 50.4295 9.21289C49.8494 8.87946 49.4349 9.15817 49.2761 9.53557C49.1203 9.90549 49.4316 10.4264 49.8871 10.6397C50.8757 11.1026 51.4822 10.7883 51.4822 10.7883Z" fill="black"/>
<path opacity="0.3" d="M46.288 14.8318C46.288 14.8318 45.4196 15.2914 45.3535 16.4801C45.3164 17.1482 45.7515 17.3931 46.16 17.3656C46.5604 17.3384 46.8861 16.8267 46.8718 16.324C46.8412 15.2322 46.288 14.8318 46.288 14.8318Z" fill="black"/>
<path opacity="0.3" d="M55.6829 13.0782C55.6829 13.0782 54.9347 13.7152 55.1273 14.8896C55.2355 15.5499 55.7134 15.6949 56.1064 15.5795C56.4915 15.4664 56.6985 14.8962 56.5759 14.4084C56.3094 13.3498 55.6829 13.0782 55.6829 13.0782Z" fill="black"/>
<path opacity="0.3" d="M65.0111 19.6411C65.0111 19.6411 64.9411 18.6611 63.8804 18.1207C63.2844 17.8172 62.8843 18.1163 62.7449 18.5011C62.6079 18.8785 62.945 19.383 63.4106 19.5729C64.4214 19.9853 65.0111 19.6411 65.0111 19.6411Z" fill="black"/>
<path opacity="0.3" d="M68.7249 15.6534C68.7249 15.6534 69.1909 14.7882 68.5847 13.7637C68.2441 13.188 67.7462 13.2263 67.422 13.4766C67.1044 13.7218 67.1185 14.3283 67.41 14.7383C68.0425 15.628 68.7249 15.6534 68.7249 15.6534Z" fill="black"/>
<path opacity="0.3" d="M61.6854 9.26694C61.6854 9.26694 62.1403 10.1381 63.3284 10.2107C63.9962 10.2517 64.2438 9.81808 64.2183 9.40929C64.1935 9.00886 63.6833 8.68021 63.1806 8.69157C62.0891 8.71609 61.6854 9.26694 61.6854 9.26694Z" fill="black"/>
<path opacity="0.3" d="M51.3279 5.23898C51.3279 5.23898 51.7828 6.11011 52.9709 6.18278C53.6386 6.22375 53.8862 5.79013 53.8608 5.38133C53.836 4.98091 53.3258 4.65225 52.8231 4.66362C51.7316 4.68814 51.3279 5.23898 51.3279 5.23898Z" fill="black"/>
<path d="M42.5802 9.4962C42.5802 9.4962 41.6011 9.402 40.8929 10.3587C40.4949 10.8963 40.724 11.3407 41.081 11.5426C41.4309 11.7406 41.9845 11.492 42.2488 11.0644C42.8227 10.1356 42.5802 9.4962 42.5802 9.4962Z" fill="#FFF1E7"/>
<path d="M33.0417 9.83556C33.0417 9.83556 33.8937 10.3269 34.9347 9.74943C35.5196 9.42497 35.4951 8.92556 35.2541 8.59391C35.0175 8.26885 34.4108 8.26586 33.993 8.54547C33.086 9.15314 33.0417 9.83556 33.0417 9.83556Z" fill="#FFF1E7"/>
<path d="M45.3481 4.99303C45.3481 4.99303 44.6235 4.32915 43.4818 4.66558C42.84 4.85458 42.7551 5.34681 42.9184 5.72241C43.0784 6.09054 43.6699 6.22541 44.1385 6.04359C45.1561 5.64825 45.3481 4.99303 45.3481 4.99303Z" fill="#FFF1E7"/>
<path d="M51.5949 10.1379C51.5949 10.1379 51.5743 9.1555 50.5423 8.56249C49.9621 8.22935 49.5476 8.50777 49.3888 8.88516C49.233 9.25509 49.5443 9.77603 49.9998 9.98925C50.9884 10.4519 51.5949 10.1379 51.5949 10.1379Z" fill="#FFF1E7"/>
<path d="M46.401 14.1799C46.401 14.1799 45.5326 14.6396 45.4665 15.8283C45.4294 16.4964 45.8646 16.7413 46.2731 16.7138C46.6735 16.6865 46.9991 16.1746 46.9848 15.6719C46.954 14.5807 46.401 14.1799 46.401 14.1799Z" fill="#FFF1E7"/>
<path d="M55.7957 12.427C55.7957 12.427 55.0474 13.064 55.24 14.2383C55.3483 14.8986 55.8262 15.0437 56.2191 14.9282C56.6043 14.8152 56.8112 14.2449 56.6886 13.7572C56.4225 12.6982 55.7957 12.427 55.7957 12.427Z" fill="#FFF1E7"/>
<path d="M65.1241 18.9897C65.1241 18.9897 65.0542 18.0098 63.9935 17.4694C63.3975 17.1658 62.9973 17.4649 62.858 17.8498C62.721 18.2269 63.058 18.7317 63.5236 18.9216C64.5341 19.3339 65.1241 18.9897 65.1241 18.9897Z" fill="#FFF1E7"/>
<path d="M68.8377 15.0017C68.8377 15.0017 69.3036 14.1366 68.6975 13.1123C68.3568 12.5367 67.8589 12.575 67.5348 12.8253C67.2172 13.0705 67.2312 13.6769 67.5228 14.0869C68.1553 14.9766 68.8377 15.0017 68.8377 15.0017Z" fill="#FFF1E7"/>
<path d="M61.7984 8.61508C61.7984 8.61508 62.2533 9.48621 63.4414 9.55888C64.1092 9.59985 64.3568 9.16623 64.3314 8.75743C64.3065 8.357 63.7964 8.02835 63.2937 8.03971C62.2021 8.06424 61.7984 8.61508 61.7984 8.61508Z" fill="#FFF1E7"/>
<path d="M51.4407 4.58762C51.4407 4.58762 51.8955 5.45874 53.0836 5.53141C53.7514 5.57238 53.999 5.13876 53.9736 4.72996C53.9488 4.32954 53.4386 4.00089 52.9359 4.01225C51.8447 4.03677 51.4407 4.58762 51.4407 4.58762Z" fill="#FFF1E7"/>
<path d="M60.314 34.4322C60.314 34.4349 60.2751 34.4361 60.1991 34.4358C60.1157 34.4346 60.0044 34.4328 59.8627 34.4307C59.5672 34.4232 59.1312 34.4163 58.5702 34.3888C57.4482 34.3425 55.8246 34.2492 53.8267 34.0443C51.8285 33.8425 49.4558 33.5255 46.8422 33.053C45.5359 32.8143 44.1693 32.5389 42.7587 32.2258C41.3501 31.9091 39.8872 31.582 38.4213 31.1235C36.9541 30.6723 35.5489 30.1486 34.2137 29.593C33.5474 29.314 32.8931 29.0314 32.2743 28.7075C31.6553 28.3863 31.0668 28.0391 30.5088 27.6758C29.3921 26.95 28.4005 26.1575 27.5311 25.3543C26.66 24.5561 25.9097 23.7284 25.3807 22.8668C24.3092 21.1485 23.8911 19.5372 23.6677 18.4433C23.4491 17.3395 23.4276 16.7157 23.4276 16.7157C23.4303 16.7154 23.4375 16.7537 23.4491 16.8284C23.4611 16.911 23.4767 17.021 23.4967 17.161C23.5407 17.4529 23.6076 17.8832 23.727 18.4307C23.9677 19.5169 24.4007 21.1141 25.4734 22.8073C26.0033 23.6563 26.747 24.4673 27.6185 25.2589C28.4863 26.0529 29.4753 26.837 30.5868 27.555C31.1421 27.9141 31.7274 28.2574 32.3425 28.5747C32.9562 28.8944 33.606 29.1734 34.272 29.4515C35.6039 30.0039 37.0053 30.5245 38.4667 30.9743C39.9255 31.4306 41.3836 31.7578 42.7913 32.0766C44.1995 32.3915 45.5637 32.6693 46.8673 32.9115C49.4759 33.3909 51.8431 33.719 53.8375 33.9346C55.8318 34.1532 57.4524 34.2632 58.5726 34.3281C59.1261 34.3586 59.5592 34.3825 59.863 34.3993C60.0044 34.408 60.1154 34.4148 60.1985 34.4199C60.2754 34.4253 60.3143 34.4295 60.314 34.4322Z" fill="#263238"/>
<path d="M68.1867 30.1077C68.1894 30.1182 68.0294 30.1648 67.7375 30.2405C67.4463 30.3182 67.0204 30.413 66.4911 30.5138C65.4328 30.7166 63.9507 30.9109 62.3041 30.9495C60.657 30.9854 59.1674 30.858 58.101 30.7034C57.5675 30.6268 57.1378 30.5515 56.8435 30.4869C56.5487 30.4244 56.3869 30.3849 56.389 30.3745C56.3911 30.364 56.5567 30.3831 56.854 30.4271C57.151 30.4731 57.5819 30.5318 58.1151 30.5943C59.1812 30.7205 60.6627 30.8296 62.3006 30.794C63.9378 30.7554 65.4128 30.5796 66.472 30.4055C67.0019 30.3191 67.4298 30.2411 67.7244 30.1816C68.0195 30.1238 68.184 30.0972 68.1867 30.1077Z" fill="#263238"/>
<g opacity="0.3">
<path d="M38.596 13.5013C39.0057 13.5569 39.3334 13.9684 39.2963 14.3802C39.2592 14.792 38.863 15.138 38.45 15.1194C38.0367 15.1009 37.6734 14.7208 37.6731 14.3072C37.6728 13.8936 38.0361 13.5132 38.4491 13.4944" fill="#931A00"/>
</g>
<g opacity="0.3">
<path d="M39.8998 5.55729C40.3095 5.61322 40.6372 6.02441 40.6002 6.43619C40.5631 6.84798 40.1668 7.19398 39.7539 7.17544C39.3406 7.1569 38.9772 6.77681 38.9769 6.36323C38.9766 5.94964 39.34 5.56926 39.7533 5.55042" fill="#931A00"/>
</g>
<g opacity="0.3">
<path d="M69.7305 17.7972C70.4051 17.889 70.9443 18.566 70.8833 19.244C70.822 19.9219 70.1701 20.4913 69.49 20.4608C68.81 20.4303 68.2116 19.8047 68.2113 19.1241C68.211 18.4434 68.8088 17.8172 69.4888 17.7861" fill="#931A00"/>
</g>
<g opacity="0.3">
<path d="M57.6513 7.60365C57.9886 7.6494 58.2583 7.98793 58.2275 8.32705C58.197 8.66617 57.8711 8.95086 57.531 8.93561C57.191 8.92036 56.8917 8.60755 56.8917 8.26724C56.8914 7.92692 57.1904 7.61382 57.5304 7.59827" fill="#D27A4B"/>
</g>
<g opacity="0.3">
<path d="M40.2834 16.1608C40.1193 16.2099 40.011 16.4109 40.0801 16.5679C40.1492 16.7249 40.3947 16.7721 40.5038 16.6399C40.6133 16.5074 40.4539 16.1405 40.2834 16.1608Z" fill="#931A00"/>
</g>
<path d="M35.8055 3.02712C35.8073 3.0322 35.7615 3.05433 35.673 3.09201C35.5675 3.13478 35.4389 3.18651 35.284 3.24931C35.1138 3.31391 34.9069 3.39555 34.6721 3.5044C34.4368 3.61116 34.1637 3.72031 33.8757 3.87193C33.5839 4.01517 33.2654 4.17337 32.9352 4.36626C32.5976 4.54539 32.2555 4.76788 31.891 4.99456C31.1747 5.46765 30.4149 6.02986 29.6705 6.68358C28.9319 7.34447 28.2824 8.03169 27.7267 8.686C27.4582 9.02064 27.1962 9.33404 26.9779 9.64774C26.747 9.95217 26.5515 10.2497 26.3744 10.5222C26.1896 10.7898 26.0482 11.0479 25.9142 11.2686C25.7781 11.4884 25.6723 11.684 25.5876 11.8451C25.5069 11.9914 25.4399 12.1128 25.3849 12.2124C25.337 12.2958 25.3095 12.3383 25.3044 12.3362C25.2997 12.3338 25.3176 12.2865 25.3565 12.1989C25.4046 12.0954 25.4629 11.9695 25.5335 11.8176C25.6101 11.6517 25.7085 11.451 25.8379 11.2258C25.9656 10.9997 26.1008 10.7363 26.2811 10.4632C26.4534 10.1851 26.6448 9.88249 26.8729 9.57238C27.0883 9.25329 27.3484 8.93451 27.6161 8.59479C28.1699 7.93001 28.8218 7.23382 29.5668 6.56755C30.3174 5.90815 31.0865 5.34444 31.8129 4.87434C32.1825 4.64916 32.5297 4.42936 32.8724 4.25381C33.2077 4.06452 33.5312 3.91081 33.8279 3.77325C34.1207 3.62731 34.3985 3.52444 34.638 3.42485C34.877 3.32318 35.0881 3.24931 35.2621 3.19339C35.4215 3.14166 35.5534 3.09859 35.662 3.06331C35.755 3.0343 35.804 3.02204 35.8055 3.02712Z" fill="white"/>
<path d="M38.9632 2.21694C38.9742 2.25851 38.6178 2.38979 38.1671 2.50971C37.7161 2.62992 37.342 2.69362 37.331 2.65205C37.3199 2.61048 37.6764 2.4795 38.127 2.35928C38.5777 2.23907 38.9521 2.17537 38.9632 2.21694Z" fill="white"/>
<path opacity="0.3" d="M46.8425 33.0528C45.5362 32.8141 44.1696 32.5387 42.759 32.2256C41.3504 31.9089 39.8875 31.5818 38.4216 31.1233C36.9544 30.6721 35.5492 30.1484 34.214 29.5928C33.5477 29.3138 32.8934 29.0312 32.2746 28.7073C31.6556 28.3861 31.0671 28.039 30.5091 27.6756C29.3924 26.9498 28.4008 26.1573 27.5315 25.3541C27.2453 25.0918 26.974 24.8263 26.7174 24.5577C26.183 24.6633 25.587 24.797 24.9522 24.9689C25.1872 27.2865 26.5912 29.3745 28.3903 30.859C30.213 32.3629 32.4176 33.3228 34.6305 34.1509C37.7535 35.319 40.9602 36.2631 44.2177 36.9739C48.6729 37.9461 53.6252 38.3959 57.5394 36.0851C56.9727 35.4589 56.33 34.8309 55.6288 34.2083C55.0678 34.1635 54.4688 34.1102 53.8261 34.0441C51.8288 33.8423 49.4561 33.525 46.8425 33.0528Z" fill="black"/>
<path opacity="0.3" d="M30.429 73.4734L30.5205 74.0308C36.1058 76.9417 42.6283 77.7533 48.7734 76.3723C54.9186 74.9913 60.5359 71.3764 64.3389 66.3557C64.1953 66.2645 64.0512 66.173 63.9064 66.0818C59.741 68.502 52.906 71.3023 47.6218 72.5143C42.8334 73.6124 36.3519 74.2431 30.429 73.4734Z" fill="black"/>
<path opacity="0.3" d="M71.5268 101.58C70.1826 101.793 69.0187 100.539 67.6616 100.439C67.0704 100.396 66.4827 100.577 65.8903 100.562C65.2976 100.547 64.6292 100.233 64.5291 99.6486C64.3783 100.371 63.5159 100.753 62.7871 100.64C62.0583 100.526 61.4423 100.057 60.8603 99.6044C62.0828 101.403 61.6651 104.117 59.9584 105.465C58.2517 106.812 55.5143 106.589 54.0489 104.982C53.8492 105.701 53.0091 106.084 52.2657 106.019C51.5223 105.953 50.856 105.553 50.2199 105.162C49.827 106.129 49.2752 107.23 48.2474 107.41C47.9256 107.466 47.5811 107.423 47.2836 107.557C46.7815 107.784 46.6212 108.398 46.4119 108.908C45.9409 110.055 44.8843 110.981 43.6564 111.155C42.4282 111.33 41.0894 110.667 40.6034 109.526C40.462 110.379 39.6638 111.075 38.7993 111.1C37.9347 111.124 37.0986 110.475 36.9084 109.631C36.051 110.331 34.7454 109.814 33.9063 109.093C33.3016 108.573 32.7866 107.953 32.3757 107.27C32.4003 108.593 32.81 109.911 33.5731 110.993C34.731 112.634 36.671 113.696 38.6776 113.788C40.0272 115.882 43.0437 116.696 45.2632 115.562C46.1846 115.092 46.98 114.334 47.9908 114.114C48.9983 113.895 50.1805 114.214 50.9873 113.572C51.4942 113.169 51.687 112.5 52.0061 111.936C52.4541 111.144 53.1972 110.523 54.0564 110.222C56.0424 109.527 58.5418 110.476 60.1731 109.147C61.4222 109.876 63.0903 109.812 64.2806 108.991C65.4708 108.17 66.1221 106.633 65.884 105.206C67.321 105.712 69.0713 105.078 69.8518 103.77C71.2842 103.93 72.766 104.086 74.141 103.653C75.5161 103.221 76.7631 102.034 76.7891 100.593C76.8086 99.5146 76.165 98.5616 75.3474 97.8226C74.8881 98.683 74.2015 99.4656 73.5367 100.19C72.9748 100.802 72.348 101.451 71.5268 101.58Z" fill="black"/>
</svg>
