<svg width="181" height="126" viewBox="0 0 181 126" fill="none" xmlns="http://www.w3.org/2000/svg">
<path d="M24.7576 47.3037C26.8185 51.6773 33.1365 68.4379 39.2418 70.7604C46.8124 73.6405 58.2075 59.9166 60.5746 57.4422C61.0556 56.9394 84.2425 30.0172 86.0073 28.4199C96.3095 19.0954 99.3746 28.5929 106.694 45.3807C111.876 57.2682 118.319 72.3007 123.485 84.2473C125.505 88.9188 127.272 93.6881 129.566 98.2559C130.549 100.214 131.686 103.042 133.217 103.625C134.678 104.182 135.259 102.016 135.774 100.62C137.033 97.2084 137.577 93.1458 138.468 89.3992C140.745 79.8197 142.582 57.9841 150.301 54.1074C156.856 50.815 174.052 92.1628 178.058 98.1365C190.777 117.105 191.009 92.2984 202.769 99.4323C208.939 103.176 215.428 116.411 221.153 113.437" stroke="#CADABD" stroke-width="49.5034" stroke-linecap="round"/>
</svg>
